<?xml version="1.0" encoding="UTF-8"?>
<svg id="Layer_2" data-name="Layer 2" xmlns="http://www.w3.org/2000/svg" viewBox="0 0 536 339">
  <defs>
    <style>
      .cls-1 {
        fill: #ed1c24;
        stroke: #231f20;
        stroke-miterlimit: 10;
        stroke-width: 5px;
      }
    </style>
  </defs>
  <g id="Layer_1-2" data-name="Layer 1">
    <path class="cls-1" d="m533.5,195c0,50.53-40.97,91.5-91.5,91.5-22.65,0-43.39-8.23-59.37-21.88-18.39,42.3-60.56,71.88-109.63,71.88s-91.98-30.1-110.12-73c-16.97,14.36-38.92,23-62.88,23-53.85,0-97.5-43.65-97.5-97.5,0-28.19,11.96-53.58,31.09-71.37-.06-1.21-.09-2.41-.09-3.63,0-41.15,33.35-74.5,74.5-74.5,10.41,0,20.33,2.14,29.32,6,17.23-21.34,43.61-35,73.18-35,32.03,0,60.31,16.02,77.28,40.48,17.49-29.05,49.33-48.48,85.72-48.48s67.2,18.81,84.86,47.08c3.6-.71,7.33-1.08,11.14-1.08,32.03,0,58,25.97,58,58,0,13.01-4.28,25.01-11.5,34.68,11.01,15.1,17.5,33.71,17.5,53.82Z"/>
  </g>
</svg>