<svg xmlns="http://www.w3.org/2000/svg" xml:space="preserve" viewBox="0 0 443.856 443.856"><path d="M198.495 110.806c0-4.016-14.688-11.391-38.686-11.391-23.999 0-38.686 7.375-38.686 11.391s14.688 11.392 38.686 11.392c23.998-.001 38.686-7.377 38.686-11.392zM162.877 139.606a117.195 117.195 0 0 1 8.886-8.018 117.87 117.87 0 0 1-21.597.212c-8.73 6.232-10.456 10.83-10.046 11.849.448 1.116 5.703 3.43 17.795 1.225a122.322 122.322 0 0 1 4.962-5.268zM169.948 74.935c13.706 13.706 26.67 19.948 32.915 19.948.69 0 1.931-.084 2.494-.646 2.839-2.841-2.331-18.442-19.301-35.412-13.705-13.704-26.668-19.946-32.914-19.946-.69 0-1.932.084-2.495.647-.945.944-1.227 4.824 1.869 11.639 3.404 7.49 9.595 15.932 17.432 23.77zM280.979 82.006a116.791 116.791 0 0 1-8.886 8.018 117.855 117.855 0 0 1 21.594-.212c8.731-6.23 10.457-10.83 10.049-11.85-.448-1.114-5.704-3.425-17.802-1.225a118.744 118.744 0 0 1-4.955 5.269zM250.729 51.754c2.324-2.324 4.7-4.496 7.091-6.525 1.772-10.588-.261-15.063-1.271-15.495-1.101-.471-6.457 1.608-13.453 11.724a117.9 117.9 0 0 1-.382 19.155 118.061 118.061 0 0 1 8.015-8.859zM193.128 51.754a117.538 117.538 0 0 1 8.017 8.877 117.723 117.723 0 0 1-.212-21.586c-6.229-8.73-10.825-10.449-11.849-10.048-1.114.448-3.428 5.702-1.226 17.795a119.075 119.075 0 0 1 5.27 4.962zM193.128 169.856a118.395 118.395 0 0 1-7.093 6.528c-1.771 10.586.262 15.062 1.271 15.494 1.101.461 6.457-1.61 13.454-11.727a117.443 117.443 0 0 1 .386-19.173 117.18 117.18 0 0 1-8.018 8.878zM221.928 87.372c4.016 0 11.391-14.688 11.391-38.687 0-23.998-7.375-38.686-11.391-38.686s-11.39 14.688-11.39 38.686c0 24 7.374 38.687 11.39 38.687zM152.578 89.638a117.875 117.875 0 0 1 19.187.385 117 117 0 0 1-8.888-8.019 119.383 119.383 0 0 1-6.548-7.097c-10.573-1.766-15.043.267-15.474 1.276-.471 1.105 1.609 6.458 11.723 13.455zM291.275 131.975a117.85 117.85 0 0 1-19.181-.385 117.146 117.146 0 0 1 15.422 15.113c10.58 1.769 15.053-.263 15.483-1.272.473-1.107-1.609-6.46-11.724-13.456zM250.729 169.855a118.668 118.668 0 0 1-8.016-8.857 117.96 117.96 0 0 1 .21 21.569c6.23 8.73 10.834 10.458 11.85 10.048 1.114-.447 3.428-5.701 1.226-17.796a120.291 120.291 0 0 1-5.27-4.964zM240.995 126.729c-.69 0-1.931.084-2.493.646-.947.946-1.229 4.825 1.866 11.64 3.403 7.49 9.594 15.932 17.432 23.77 13.707 13.706 26.671 19.949 32.915 19.949.689 0 1.93-.084 2.493-.646 2.839-2.841-2.331-18.443-19.299-35.412-13.705-13.704-26.669-19.947-32.914-19.947zM294.622 99.917c-.066-.006-.132-.009-.197-.018-3.227-.31-6.691-.484-10.377-.484-23.998 0-38.686 7.375-38.686 11.391s14.688 11.392 38.686 11.392c23.998 0 38.686-7.376 38.686-11.392-.001-3.387-10.446-9.161-28.112-10.889z" style="fill:#fff"/><path d="M221.928 97.372c-7.407 0-13.433 6.026-13.433 13.434 0 7.408 6.026 13.435 13.433 13.435 7.408 0 13.434-6.026 13.434-13.435 0-7.408-6.026-13.434-13.434-13.434z" style="fill:#eff226"/><path d="M226.928 354.341c7.123-8.69 17.409-22.186 26.038-37.231a4.997 4.997 0 0 1 6.824-1.85 4.998 4.998 0 0 1 1.85 6.824c-13.305 23.2-29.907 42.321-34.712 47.668v2.119c48.557-16.051 63.246-97.821 67.165-129.749-53.623 51.179-66.046 103.655-67.165 108.851v3.368z" style="fill:#98cb19"/><path d="M221.928 134.24c-4.016 0-11.39 14.688-11.39 38.686 0 23.998 7.374 38.686 11.39 38.686 4.016 0 11.391-14.688 11.391-38.686 0-23.998-7.375-38.686-11.391-38.686zM240.994 94.883c6.245 0 19.21-6.242 32.915-19.947 16.969-16.969 22.138-32.57 19.298-35.411-.562-.562-1.804-.646-2.493-.646-5.033 0-14.432 4.062-25.064 12.811-.046.039-.093.075-.141.113a109.573 109.573 0 0 0-7.709 7.023c-7.838 7.838-14.029 16.279-17.433 23.771-3.096 6.814-2.813 10.693-1.868 11.639.563.562 1.804.647 2.495.647zM202.864 126.729c-6.246 0-19.21 6.242-32.915 19.947-7.838 7.838-14.029 16.279-17.432 23.771-3.096 6.814-2.814 10.694-1.868 11.64.563.562 1.805.646 2.495.646 6.245 0 19.208-6.242 32.914-19.947 16.97-16.969 22.14-32.57 19.301-35.41-.564-.563-1.806-.647-2.495-.647z" style="fill:#fff"/><path d="M306.866 91.725c6.011-6.154 8.247-12.265 6.15-17.487-2.282-5.688-8.853-8.569-18.574-8.425 8.891-13.171 12.818-26.375 5.836-33.358-1.631-1.632-4.614-3.576-9.564-3.576-6.068 0-13.948 3.079-22.219 8.394-.097-8.611-2.837-14.521-8.017-16.733-5.638-2.41-12.321.198-19.09 7.175C238.361 12.113 231.802 0 221.928 0c-9.48 0-15.904 11.168-19.081 25.866-6.154-6.011-12.266-8.247-17.489-6.149-5.688 2.284-8.57 8.857-8.423 18.577-8.841-5.951-17.339-9.417-23.792-9.417-4.95 0-7.934 1.944-9.566 3.575-3.308 3.308-6.022 9.956-.165 22.847 1.316 2.896 2.985 5.899 4.945 8.939-8.591.106-14.487 2.845-16.698 8.017-2.407 5.637.202 12.32 7.178 19.09-15.6 3.027-27.713 9.586-27.713 19.46 0 9.481 11.169 15.905 25.866 19.082-6.011 6.154-8.247 12.267-6.149 17.488 2.228 5.552 8.523 8.444 17.859 8.444.224 0 .467-.018.695-.021-2.415 3.577-4.44 7.118-5.982 10.512-5.856 12.891-3.143 19.539.165 22.847 1.631 1.632 4.615 3.576 9.566 3.576 6.068 0 13.947-3.079 22.218-8.394.097 8.612 2.837 14.521 8.018 16.734 1.379.59 2.82.88 4.31.88 4.602 0 9.667-2.78 14.781-8.051 2.483 12.794 7.341 23.242 14.458 26.583v218.37a5 5 0 1 0 10.001 0v-56.548c28.739-7.922 51.287-36.241 65.365-82.269 10.87-35.534 12.979-68.703 13.063-70.099a5.001 5.001 0 0 0-8.275-4.072c-39.189 34.133-59.736 69.66-70.153 93.848v-99.23c6.771-3.179 11.498-12.791 14.08-24.736 4.636 4.527 9.248 6.917 13.474 6.917 1.384 0 2.727-.255 4.016-.772 5.689-2.283 8.571-8.856 8.425-18.58 8.842 5.952 17.339 9.419 23.792 9.419 4.949 0 7.933-1.944 9.564-3.576 6.701-6.705 3.35-19.141-4.792-31.776 8.603-.102 14.5-2.85 16.709-8.026 2.407-5.636-.201-12.319-7.178-19.089 15.6-3.026 27.715-9.586 27.715-19.461-.002-9.48-11.171-15.905-25.869-19.08zm-3.13-13.764c.408 1.02-1.317 5.619-10.049 11.85a117.855 117.855 0 0 0-21.594.212 116.77 116.77 0 0 0 13.841-13.288c12.098-2.199 17.354.112 17.802 1.226zm-60.64-36.504c6.996-10.115 12.352-12.194 13.453-11.724 1.01.432 3.043 4.907 1.271 15.495a117.971 117.971 0 0 0-15.107 15.382 117.9 117.9 0 0 0 .383-19.153zM221.928 10c4.016 0 11.391 14.688 11.391 38.686 0 23.999-7.375 38.687-11.391 38.687s-11.39-14.688-11.39-38.687c0-23.998 7.374-38.686 11.39-38.686zm-32.844 18.997c1.023-.401 5.62 1.317 11.849 10.048a117.708 117.708 0 0 0 .212 21.586 117.538 117.538 0 0 0-8.017-8.877 119.633 119.633 0 0 0-5.27-4.962c-2.202-12.093.112-17.347 1.226-17.795zm-38.436 10.528c.563-.563 1.805-.647 2.495-.647 6.246 0 19.209 6.242 32.914 19.946 16.969 16.97 22.14 32.571 19.301 35.412-.562.562-1.804.646-2.494.646-6.245 0-19.209-6.242-32.915-19.948-7.838-7.838-14.029-16.279-17.432-23.771-3.096-6.813-2.814-10.693-1.869-11.638zm-9.793 36.66c.431-1.01 4.901-3.042 15.474-1.276a120.007 120.007 0 0 0 6.548 7.097 116.83 116.83 0 0 0 8.888 8.019 117.89 117.89 0 0 0-19.187-.385c-10.114-6.999-12.194-12.352-11.723-13.455zm-19.732 34.621c0-4.016 14.688-11.391 38.686-11.391 23.998 0 38.686 7.375 38.686 11.391s-14.688 11.392-38.686 11.392c-23.998-.001-38.686-7.377-38.686-11.392zm18.997 32.844c-.409-1.019 1.316-5.617 10.046-11.849a117.87 117.87 0 0 0 21.597-.212 116.58 116.58 0 0 0-8.886 8.018 120.54 120.54 0 0 0-4.961 5.269c-12.093 2.204-17.347-.109-17.796-1.226zm60.64 36.502c-6.997 10.116-12.353 12.188-13.454 11.727-1.01-.432-3.043-4.908-1.271-15.494a118.09 118.09 0 0 0 7.093-6.528 117.767 117.767 0 0 0 8.018-8.877 117.732 117.732 0 0 0-.386 19.172zm-14.703-17.366c-13.706 13.705-26.669 19.947-32.914 19.947-.69 0-1.932-.084-2.495-.646-.945-.945-1.227-4.825 1.868-11.64 3.403-7.491 9.594-15.933 17.432-23.771 13.705-13.705 26.669-19.947 32.915-19.947.69 0 1.931.084 2.494.646 2.84 2.841-2.33 18.442-19.3 35.411zm108.036 79.336c-3.919 31.928-18.608 113.698-67.165 129.749v-2.119c4.805-5.347 21.407-24.468 34.712-47.668a4.998 4.998 0 0 0-1.85-6.824 4.997 4.997 0 0 0-6.824 1.85c-8.629 15.046-18.915 28.541-26.038 37.231v-3.368c1.12-5.196 13.542-57.672 67.165-108.851zm-72.165-30.51c-4.016 0-11.39-14.688-11.39-38.686 0-23.999 7.374-38.686 11.39-38.686 4.016 0 11.391 14.688 11.391 38.686 0 23.999-7.375 38.686-11.391 38.686zm0-87.372c-7.407 0-13.433-6.026-13.433-13.435 0-7.407 6.026-13.434 13.433-13.434 7.408 0 13.434 6.026 13.434 13.434 0 7.409-6.026 13.435-13.434 13.435zm18.439-41.644c3.403-7.491 9.595-15.933 17.433-23.771 2.61-2.61 5.193-4.946 7.709-7.023.048-.038.095-.074.141-.113 10.633-8.748 20.031-12.811 25.064-12.811.689 0 1.931.084 2.493.646 2.84 2.841-2.329 18.442-19.298 35.411-13.705 13.705-26.67 19.947-32.915 19.947-.69 0-1.932-.085-2.495-.648-.946-.945-1.228-4.824 1.868-11.638zm14.406 110.018c-1.016.41-5.619-1.317-11.85-10.048a118.141 118.141 0 0 0-.21-21.569c2.448 3 5.132 5.975 8.016 8.857a119.698 119.698 0 0 0 5.27 4.963c2.202 12.096-.112 17.35-1.226 17.797zm38.435-10.526c-.564.562-1.804.646-2.493.646-6.244 0-19.208-6.243-32.915-19.949-7.838-7.838-14.028-16.279-17.432-23.77-3.096-6.814-2.813-10.693-1.866-11.64.562-.562 1.803-.646 2.493-.646 6.245 0 19.209 6.242 32.914 19.946 16.968 16.97 22.138 32.572 19.299 35.413zM303 145.429c-.431 1.01-4.903 3.041-15.483 1.272a117.167 117.167 0 0 0-15.422-15.113 117.865 117.865 0 0 0 19.181.385c10.114 6.998 12.196 12.351 11.724 13.456zm-18.952-23.232c-23.998 0-38.686-7.376-38.686-11.392 0-4.016 14.688-11.391 38.686-11.391 3.686 0 7.15.175 10.377.484.065.009.131.012.197.018 17.666 1.728 28.111 7.502 28.111 10.889 0 4.016-14.687 11.392-38.685 11.392z" style="fill:#080808"/></svg>