<svg xmlns="http://www.w3.org/2000/svg" xml:space="preserve" viewBox="0 0 480 480"><path d="M16 428h16V324h168v104h80V324h168v104h16V308H16z" style="fill:#e9a868"/><path d="M448 452H280v-24h-80v24H32v-24H16v40h448v-40h-16zM456 290.5a1.5 1.5 0 0 1-1.5 1.5h-21a1.5 1.5 0 0 1-1.5-1.5 1.5 1.5 0 0 1-1.5 1.5h-21a1.5 1.5 0 0 1-1.5-1.5 1.5 1.5 0 0 1-1.5 1.5h-21a1.5 1.5 0 0 1-1.5-1.5 1.5 1.5 0 0 1-1.5 1.5h-21a1.5 1.5 0 0 1-1.5-1.5 1.5 1.5 0 0 1-1.5 1.5h-21a1.5 1.5 0 0 1-1.5-1.5 1.5 1.5 0 0 1-1.5 1.5h-21a1.5 1.5 0 0 1-1.5-1.5 1.5 1.5 0 0 1-1.5 1.5h-21a1.5 1.5 0 0 1-1.5-1.5 1.5 1.5 0 0 1-1.5 1.5h-21a1.5 1.5 0 0 1-1.5-1.5 1.5 1.5 0 0 1-1.5 1.5h-21a1.5 1.5 0 0 1-1.5-1.5 1.5 1.5 0 0 1-1.5 1.5h-21a1.5 1.5 0 0 1-1.5-1.5 1.5 1.5 0 0 1-1.5 1.5h-21a1.5 1.5 0 0 1-1.5-1.5 1.5 1.5 0 0 1-1.5 1.5h-21a1.5 1.5 0 0 1-1.5-1.5 1.5 1.5 0 0 1-1.5 1.5h-21a1.5 1.5 0 0 1-1.5-1.5 1.5 1.5 0 0 1-1.5 1.5h-21a1.5 1.5 0 0 1-1.5-1.5 1.5 1.5 0 0 1-1.5 1.5h-21a1.5 1.5 0 0 1-1.5-1.5 1.5 1.5 0 0 1-1.5 1.5h-21a1.5 1.5 0 0 1-1.5-1.5 1.5 1.5 0 0 1-1.5 1.5h-21a1.5 1.5 0 0 1-1.5-1.5 1.5 1.5 0 0 1-1.5 1.5h-21a1.5 1.5 0 0 1-1.5-1.5 1.5 1.5 0 0 1-1.5 1.5H16v16h448v-16h-6.5a1.5 1.5 0 0 1-1.5-1.5z" style="fill:#d6805c"/><path d="M192.999 169.159h-.174l-6.226 18.333h12.627zM239.87 175.155c0-4.663-3.07-7.501-8.08-7.501h-9.152v15.031h9.325c5.011 0 7.907-2.752 7.907-7.53z" style="fill:#bf515a"/><path d="M48 220H24v70.5a1.5 1.5 0 0 0 1.5 1.5h21a1.5 1.5 0 0 0 1.5-1.5V220zM96 220H72v70.5a1.5 1.5 0 0 0 1.5 1.5h21a1.5 1.5 0 0 0 1.5-1.5V220z" style="fill:#f2d057"/><path d="M24 290.5V220h24v70.5a1.5 1.5 0 0 0 1.5 1.5h21a1.5 1.5 0 0 0 1.5-1.5V220h24v70.5a1.5 1.5 0 0 0 1.5 1.5h21a1.5 1.5 0 0 0 1.5-1.5V220h24v70.5a1.5 1.5 0 0 0 1.5 1.5h21a1.5 1.5 0 0 0 1.5-1.5V220h24v70.5a1.5 1.5 0 0 0 1.5 1.5h21a1.5 1.5 0 0 0 1.5-1.5V220h24v70.5a1.5 1.5 0 0 0 1.5 1.5h21a1.5 1.5 0 0 0 1.5-1.5V220h24v70.5a1.5 1.5 0 0 0 1.5 1.5h21a1.5 1.5 0 0 0 1.5-1.5V220h24v70.5a1.5 1.5 0 0 0 1.5 1.5h21a1.5 1.5 0 0 0 1.5-1.5V220h24v70.5a1.5 1.5 0 0 0 1.5 1.5h21a1.5 1.5 0 0 0 1.5-1.5V220h24v70.5a1.5 1.5 0 0 0 1.5 1.5h21a1.5 1.5 0 0 0 1.5-1.5V220h8v-74H96v-22.578c-2.614.374-5.283.578-8 .578s-5.386-.204-8-.578V146H16v74H3a3 3 0 0 0-3 3v67.5a1.5 1.5 0 0 0 1.5 1.5h21a1.5 1.5 0 0 0 1.5-1.5zm296.943-128.291h32.523v5.589h-13.003V204h-6.487v-36.201h-13.032v-5.59zm-30.742 0h26.529v5.589h-20.042v12.221h18.97v5.387h-18.97v12.975h20.042V204h-26.529v-41.791zm-37.431 0h6.487v19.896h.261l17.464-19.896h7.703l-16.566 18.506L286.076 204h-8.051l-14.48-18.824-4.287 4.894V204h-6.487v-41.791zm-36.619 0h16.421c8.601 0 13.959 4.981 13.959 12.772 0 5.647-3.012 10.223-8.109 11.932L247.805 204h-7.501l-8.514-16.073h-9.152V204h-6.487v-41.791zm-26.685 0h7.009L211.563 204h-6.864l-3.823-11.295h-15.929L181.125 204h-6.748l15.089-41.791zm-61.955 0h7.501l13.525 32.986h.231l13.496-32.986h7.53V204h-5.937v-30.757h-.203l-12.598 30.438h-4.807l-12.628-30.438h-.202V204h-5.908v-41.791z" style="fill:#bf515a"/><path d="M144 220h-24v70.5a1.5 1.5 0 0 0 1.5 1.5h21a1.5 1.5 0 0 0 1.5-1.5V220zM192 220h-24v70.5a1.5 1.5 0 0 0 1.5 1.5h21a1.5 1.5 0 0 0 1.5-1.5V220zM240 220h-24v70.5a1.5 1.5 0 0 0 1.5 1.5h21a1.5 1.5 0 0 0 1.5-1.5V220zM288 220h-24v70.5a1.5 1.5 0 0 0 1.5 1.5h21a1.5 1.5 0 0 0 1.5-1.5V220zM477 220h-21v70.5a1.5 1.5 0 0 0 1.5 1.5h21a1.5 1.5 0 0 0 1.5-1.5V223a3 3 0 0 0-3-3z" style="fill:#f2d057"/><path d="M136 452 32 348v104zM384 452 280 348v104z" style="fill:#95ffff"/><path d="M336 220h-24v70.5a1.5 1.5 0 0 0 1.5 1.5h21a1.5 1.5 0 0 0 1.5-1.5V220zM384 220h-24v70.5a1.5 1.5 0 0 0 1.5 1.5h21a1.5 1.5 0 0 0 1.5-1.5V220zM432 220h-24v70.5a1.5 1.5 0 0 0 1.5 1.5h21a1.5 1.5 0 0 0 1.5-1.5V220z" style="fill:#f2d057"/><path d="M32 324h168v24H32zM280 324h168v24H280z" style="fill:#6eb1e2"/><path d="M136 452h64V348H32zM384 452h64V348H280z" style="fill:#80d7f0"/><path d="M96 123.422c27.137-3.883 48-27.211 48-55.422 0-30.928-25.072-56-56-56S32 37.072 32 68c0 28.211 20.863 51.539 48 55.422 2.614.374 5.283.578 8 .578s5.386-.204 8-.578zM48 68c0-22.091 17.909-40 40-40s40 17.909 40 40-17.909 40-40 40-40-17.909-40-40z" style="fill:#f2d057"/><path d="M128 68c0-22.091-17.909-40-40-40S48 45.909 48 68s17.909 40 40 40 40-17.909 40-40zm-64 0c0-13.255 10.745-24 24-24s24 10.745 24 24-10.745 24-24 24-24-10.745-24-24z" style="fill:#fff"/><circle cx="88" cy="68" r="24" style="fill:#bf515a"/><path d="M133.419 173.243h.203l12.627 30.439h4.807l12.598-30.439h.203V204h5.937v-41.791h-7.53l-13.496 32.986h-.231l-13.525-32.986h-7.501V204h5.908zM184.948 192.705h15.929L204.699 204h6.864l-15.089-41.791h-7.009L174.377 204h6.748l3.823-11.295zm7.877-23.546h.174l6.226 18.333h-12.627l6.227-18.333zM222.638 187.927h9.152L240.304 204h7.501l-9.384-17.087c5.097-1.709 8.109-6.285 8.109-11.932 0-7.791-5.358-12.772-13.959-12.772H216.15V204h6.487v-16.073zm0-20.273h9.152c5.01 0 8.08 2.838 8.08 7.501 0 4.778-2.896 7.53-7.906 7.53h-9.325v-15.031zM259.258 190.07l4.286-4.894L278.025 204h8.051l-17.956-23.285 16.565-18.506h-7.703l-17.464 19.896h-.26v-19.896h-6.488V204h6.488zM316.729 198.382h-20.041v-12.975h18.969v-5.387h-18.969v-12.221h20.041v-5.59h-26.528V204h26.528zM333.975 204h6.487v-36.201h13.004v-5.59h-32.523v5.59h13.032z" style="fill:#f2d057"/></svg>