<svg xmlns="http://www.w3.org/2000/svg" xml:space="preserve" viewBox="0 0 512.002 512.002"><path d="M368.529 188.483c0 55.933-45.342 101.275-101.275 101.275 0-55.932 45.341-101.275 101.275-101.275z" style="fill:#f8e99b"/><path d="M368.529 109.714c0 55.933-45.342 101.275-101.275 101.275 0-55.932 45.341-101.275 101.275-101.275zM256.001 8.439c-39.55 39.55-39.55 103.674 0 143.224 39.55-39.55 39.55-103.673 0-143.224zM368.529 267.253c0 55.933-45.342 101.275-101.275 101.275 0-55.932 45.341-101.275 101.275-101.275zM143.473 188.483c0 55.933 45.342 101.275 101.275 101.275 0-55.932-45.343-101.275-101.275-101.275z" style="fill:#f8e99b"/><path d="M143.473 109.714c0 55.933 45.342 101.275 101.275 101.275 0-55.932-45.343-101.275-101.275-101.275zM143.473 267.253c0 55.933 45.342 101.275 101.275 101.275 0-55.932-45.343-101.275-101.275-101.275zM368.529 346.022c0 55.933-45.342 101.275-101.275 101.275 0-55.932 45.341-101.275 101.275-101.275z" style="fill:#f8e99b"/><path d="M143.473 346.022c0 55.933 45.342 101.275 101.275 101.275 0-55.932-45.343-101.275-101.275-101.275z" style="fill:#f8e99b"/><path d="M345.99 191.004c-1.15 47.066-34.41 86.167-78.705 96.234-.02.837-.031 1.678-.031 2.521 55.933 0 101.275-45.342 101.275-101.275-7.748-.001-15.29.872-22.539 2.52zM345.99 112.234c-1.15 47.066-34.41 86.167-78.705 96.234-.02.838-.031 1.678-.031 2.521 55.933 0 101.275-45.342 101.275-101.275-7.748 0-15.29.873-22.539 2.52zM256.001 8.439c-4.209 4.207-7.94 8.707-11.253 13.412 24.51 34.813 24.51 81.586 0 116.399 3.313 4.705 7.044 9.205 11.253 13.412 39.55-39.549 39.55-103.672 0-143.223zM345.99 269.773c-1.15 47.066-34.41 86.167-78.705 96.234-.02.837-.031 1.678-.031 2.521 55.933 0 101.275-45.342 101.275-101.275-7.748 0-15.29.873-22.539 2.52zM222.21 287.238a101.612 101.612 0 0 0 22.537 2.521c0-55.933-45.342-101.275-101.275-101.275 0 .843.011 1.682.031 2.521 44.297 10.067 77.557 49.167 78.707 96.233zM222.21 208.468a101.612 101.612 0 0 0 22.537 2.521c0-55.933-45.342-101.275-101.275-101.275 0 .843.011 1.682.031 2.521 44.297 10.067 77.557 49.167 78.707 96.233zM222.21 366.007a101.612 101.612 0 0 0 22.537 2.521c0-55.933-45.342-101.275-101.275-101.275 0 .843.011 1.682.031 2.521 44.297 10.067 77.557 49.167 78.707 96.233zM345.99 348.543c-1.15 47.066-34.41 86.167-78.705 96.234-.02.837-.031 1.678-.031 2.521 55.933 0 101.275-45.342 101.275-101.275-7.748-.001-15.29.872-22.539 2.52zM222.21 444.776a101.612 101.612 0 0 0 22.537 2.521c0-55.933-45.342-101.275-101.275-101.275 0 .843.011 1.682.031 2.521 44.297 10.068 77.557 49.168 78.707 96.233z" style="fill:#f6e27d"/><path d="M368.529 196.923a8.44 8.44 0 0 0 8.44-8.44 8.44 8.44 0 0 0-8.44-8.44c-6.275 0-12.425.537-18.414 1.554a109.216 109.216 0 0 0 20.608-35.313 8.44 8.44 0 0 0-15.914-5.624c-12.091 34.212-43.059 58.049-78.696 61.466 4.477-47.047 44.216-83.973 92.416-83.973 4.662 0 8.44-3.779 8.44-8.44s-3.778-8.44-8.44-8.44c-48.376 0-89.535 31.474-104.088 75.018v-21.226a109.588 109.588 0 0 0 21.74-116.018c-1.74-4.326-6.656-6.417-10.98-4.68a8.439 8.439 0 0 0-4.679 10.979 92.734 92.734 0 0 1-14.521 93.787c-30.107-36.433-28.116-90.643 5.968-124.728a8.439 8.439 0 0 0 0-11.935 8.441 8.441 0 0 0-11.936 0c-41.928 41.927-42.732 109.608-2.472 152.559v21.262c-14.553-43.544-55.712-75.018-104.088-75.018a8.44 8.44 0 0 0-8.44 8.44c0 27.476 10.153 52.624 26.903 71.892a109.979 109.979 0 0 0-18.464-1.562 8.44 8.44 0 0 0-8.44 8.44c0 27.476 10.153 52.624 26.903 71.892a109.979 109.979 0 0 0-18.464-1.562 8.44 8.44 0 0 0-8.44 8.44c0 27.476 10.153 52.624 26.903 71.892a109.979 109.979 0 0 0-18.464-1.562 8.44 8.44 0 0 0-8.44 8.44c0 60.497 49.217 109.715 109.715 109.715.988 0 1.932-.179 2.813-.491v48.315a8.44 8.44 0 0 0 16.88 0v-48.315a8.403 8.403 0 0 0 2.813.491c46.426 0 88.007-29.395 103.469-73.144a8.44 8.44 0 0 0-5.145-10.769c-4.393-1.555-9.216.751-10.769 5.145-12.091 34.212-43.059 58.049-78.696 61.466 4.477-47.047 44.216-83.973 92.416-83.973a8.44 8.44 0 0 0 8.44-8.44 8.44 8.44 0 0 0-8.44-8.44c-6.275 0-12.425.537-18.414 1.554a109.216 109.216 0 0 0 20.608-35.313 8.44 8.44 0 0 0-15.914-5.624c-12.091 34.212-43.059 58.049-78.696 61.466 4.477-47.047 44.216-83.973 92.416-83.973a8.44 8.44 0 0 0 8.44-8.44 8.44 8.44 0 0 0-8.44-8.44c-6.275 0-12.425.537-18.414 1.554a109.216 109.216 0 0 0 20.608-35.313 8.44 8.44 0 0 0-15.914-5.624c-12.091 34.212-43.059 58.049-78.696 61.466 4.48-47.047 44.218-83.973 92.419-83.973zM247.561 333.831a109.737 109.737 0 0 0-21.277-37.195 109.979 109.979 0 0 0 18.464 1.562c.988 0 1.932-.179 2.813-.491v36.124zm0-114.893v36.124a109.737 109.737 0 0 0-21.277-37.195 109.979 109.979 0 0 0 18.464 1.562 8.403 8.403 0 0 0 2.813-.491zm-11.672-16.807c-44.136-4.196-79.361-39.422-83.557-83.557 44.135 4.195 79.361 39.421 83.557 83.557zm0 78.769c-44.136-4.196-79.361-39.422-83.557-83.557 44.135 4.196 79.361 39.421 83.557 83.557zm0 78.769c-44.136-4.196-79.361-39.422-83.557-83.557 44.135 4.196 79.361 39.422 83.557 83.557zm-83.558-4.788c44.136 4.196 79.361 39.422 83.557 83.557-44.135-4.195-79.361-39.421-83.557-83.557zm73.953 20.524a109.979 109.979 0 0 0 18.464 1.562c.988 0 1.932-.179 2.813-.491V412.6a109.746 109.746 0 0 0-21.277-37.195zm59.457-.027c-9.372 10.775-16.678 23.389-21.3 37.222v-36.124a8.403 8.403 0 0 0 2.813.491c6.27 0 12.446-.553 18.487-1.589zm0-78.769c-9.372 10.775-16.678 23.389-21.3 37.222v-36.124a8.403 8.403 0 0 0 2.813.491c6.27 0 12.446-.554 18.487-1.589zm-21.301-41.548v-36.124a8.403 8.403 0 0 0 2.813.491 109.4 109.4 0 0 0 18.487-1.589 109.75 109.75 0 0 0-21.3 37.222z" style="fill:#2e2d31"/></svg>