<svg xmlns="http://www.w3.org/2000/svg" viewBox="0 -0.25 79.5 79.5"><g data-name="Group 30"><g data-name="Group 29"><g data-name="Group 28"><g data-name="Group 27"><path fill="#572a05" d="M79.5 8v49.908a8.011 8.011 0 0 1-8 8H54.829l1.09 7.09h1.46a3 3 0 0 1 0 6h-35.26a3 3 0 1 1 0-6h1.46l1.09-7.09H8a8.01 8.01 0 0 1-8-8V7.998a8.01 8.01 0 0 1 8-8h63.5A8.011 8.011 0 0 1 79.5 8Zm-6 49.91v-8.111H6v8.109a2.025 2.025 0 0 0 2 2h63.5a2.026 2.026 0 0 0 2-2Zm0-14.111v-35.8a2.026 2.026 0 0 0-2-2H8a2.024 2.024 0 0 0-2 2v35.8h12.559l-4.17-1.249a3 3 0 0 1-2.139-2.881v-6.8a3.01 3.01 0 0 1 2.139-2.88l5.51-1.651c.061-.17.13-.329.21-.5l-2.73-5.069a2.992 2.992 0 0 1 .52-3.54l4.811-4.811a2.992 2.992 0 0 1 3.54-.52l5.069 2.73c.17-.079.33-.139.5-.21l1.65-5.509a3 3 0 0 1 2.88-2.14h6.8a3 3 0 0 1 2.88 2.14l1.65 5.509c.17.071.33.131.5.21l5.071-2.73a3 3 0 0 1 3.539.52l4.81 4.821a2.987 2.987 0 0 1 .52 3.54l-2.72 5.07c.07.16.14.329.2.489l5.51 1.651a3.012 3.012 0 0 1 2.141 2.88v6.8a3.005 3.005 0 0 1-2.141 2.881l-4.169 1.249Zm-12.25-6.36V35.1l-4.821-1.451a2.948 2.948 0 0 1-2-1.97 15.4 15.4 0 0 0-1.05-2.53 2.976 2.976 0 0 1 .01-2.81l2.39-4.44-1.66-1.659-4.44 2.389a2.971 2.971 0 0 1-2.81.01 16.278 16.278 0 0 0-2.53-1.049 2.952 2.952 0 0 1-1.97-2l-1.45-4.82h-2.34l-1.45 4.82a2.966 2.966 0 0 1-1.98 2 15.683 15.683 0 0 0-2.52 1.059 3.019 3.019 0 0 1-2.82-.02l-4.44-2.389-1.65 1.659 2.39 4.431a2.994 2.994 0 0 1 .01 2.819 15.487 15.487 0 0 0-1.05 2.53 2.983 2.983 0 0 1-2 1.97l-4.82 1.451v2.339l4.819 1.45a3 3 0 0 1 2 1.981 15.958 15.958 0 0 0 1.05 2.509 2.387 2.387 0 0 1 .16.42h5.62a10.89 10.89 0 1 1 15.7 0h5.611c.049-.139.1-.269.159-.41a15.674 15.674 0 0 0 1.06-2.519 2.964 2.964 0 0 1 2-1.981ZM49.85 73l-1.101-7.092h-18.01l-1.09 7.09Zm-5.21-36.73a4.89 4.89 0 1 0-4.889 4.89 4.9 4.9 0 0 0 4.888-4.89Z" data-name="Path 64"/><path fill="#78b831" d="M73.5 8v35.8H60.94l4.169-1.249a3.005 3.005 0 0 0 2.141-2.881v-6.8a3.012 3.012 0 0 0-2.141-2.88l-5.51-1.651c-.06-.16-.13-.329-.2-.489l2.72-5.07a2.987 2.987 0 0 0-.52-3.54l-4.81-4.821a3 3 0 0 0-3.539-.52l-5.071 2.73c-.17-.079-.33-.139-.5-.21l-1.65-5.509a3 3 0 0 0-2.88-2.14V6H71.5a2.026 2.026 0 0 1 2 2Z" data-name="Path 65"/><path fill="#fff" d="M61.249 35.1v2.339l-4.821 1.45a2.964 2.964 0 0 0-2 1.981 15.674 15.674 0 0 1-1.06 2.519c-.06.141-.11.271-.159.41h-5.61a10.89 10.89 0 1 0-15.7 0h-5.62a2.387 2.387 0 0 0-.16-.42 15.958 15.958 0 0 1-1.05-2.509 3 3 0 0 0-2-1.981l-4.819-1.45V35.1l4.819-1.451a2.983 2.983 0 0 0 2-1.97 15.487 15.487 0 0 1 1.05-2.53 2.994 2.994 0 0 0-.01-2.819l-2.39-4.431 1.65-1.659 4.44 2.389a3.019 3.019 0 0 0 2.82.02 15.683 15.683 0 0 1 2.52-1.059 2.966 2.966 0 0 0 1.98-2l1.45-4.82h2.34l1.45 4.82a2.952 2.952 0 0 0 1.97 2 16.278 16.278 0 0 1 2.53 1.049 2.971 2.971 0 0 0 2.81-.01l4.44-2.389 1.66 1.659-2.39 4.44a2.976 2.976 0 0 0-.01 2.81 15.4 15.4 0 0 1 1.05 2.53 2.948 2.948 0 0 0 2 1.97Z" data-name="Path 66"/><path fill="#e1d4c0" d="m48.749 65.908 1.1 7.09h-20.2l1.09-7.09Z" data-name="Path 67"/><path fill="#78b831" d="M39.749 31.379a4.891 4.891 0 1 1-4.891 4.891 4.9 4.9 0 0 1 4.891-4.891Z" data-name="Path 68"/><path fill="#572a05" d="M41.869 52.73a3 3 0 1 1-4.24 0 2.95 2.95 0 0 1 2.121-.831 2.98 2.98 0 0 1 2.119.831Z" data-name="Path 69"/><path fill="#7c4403" d="M41.869 56.98a3 3 0 0 0 0-4.25 2.98 2.98 0 0 0-2.119-.831v-2.1H73.5v8.109a2.026 2.026 0 0 1-2 2H39.749v-2.06a3.048 3.048 0 0 0 2.12-.868Z" data-name="Path 70"/><path fill="#7c4403" d="M39.749 59.908H8a2.025 2.025 0 0 1-2-2v-8.111h33.749v2.1a2.95 2.95 0 0 0-2.121.831 3 3 0 0 0 2.121 5.12Z" data-name="Path 71"/><path fill="#78b831" d="M36.349 8.77a3 3 0 0 0-2.88 2.14l-1.65 5.509c-.17.071-.33.131-.5.21l-5.069-2.73a2.992 2.992 0 0 0-3.54.52l-4.811 4.811a2.992 2.992 0 0 0-.52 3.54l2.73 5.069c-.08.171-.149.33-.21.5l-5.51 1.651a3.01 3.01 0 0 0-2.139 2.88v6.8a3 3 0 0 0 2.139 2.881l4.17 1.249H6V8a2.024 2.024 0 0 1 2-2h35.149v2.77Z" data-name="Path 72"/></g></g></g></g></svg>