<?xml version="1.0" ?>
<!-- Uploaded to: SVG Repo, www.svgrepo.com, Generator: SVG Repo Mixer Tools -->
<svg width="800px" height="800px" viewBox="0 0 512 512" baseProfile="tiny" overflow="visible" version="1.1" xml:space="preserve" xmlns="http://www.w3.org/2000/svg" xmlns:xlink="http://www.w3.org/1999/xlink">
<g id="Layer_1"/>
<g id="Layer_2"/>
<g id="Layer_3"/>
<g id="Layer_4"/>
<g id="Layer_5"/>
<g id="Layer_6"/>
<g id="Layer_7"/>
<g id="Layer_8"/>
<g id="Layer_9"/>
<g id="Layer_10"/>
<g id="Layer_11"/>
<g id="Layer_12"/>
<g id="Layer_13"/>
<g id="Layer_14"/>
<g id="Layer_15"/>
<g id="Layer_16"/>
<g id="Layer_17"/>
<g id="Layer_18"/>
<g id="Layer_19"/>
<g id="Layer_20"/>
<g id="Layer_21"/>
<g id="Layer_22"/>
<g id="Layer_23"/>
<g id="Layer_24"/>
<g id="Layer_25"/>
<g id="Layer_26"/>
<g id="Layer_27"/>
<g id="Layer_28"/>
<g id="Layer_29"/>
<g id="Layer_30"/>
<g id="Layer_31"/>
<g id="Layer_32"/>
<g id="Layer_33"/>
<g id="Layer_34"/>
<g id="Layer_35"/>
<g id="Layer_36"/>
<g id="Layer_37"/>
<g id="Layer_38"/>
<g id="Layer_39"/>
<g id="Layer_40"/>
<g id="Layer_41"/>
<g id="Layer_42"/>
<g id="Layer_43"/>
<g id="Layer_44"/>
<g id="Layer_45"/>
<g id="Layer_46"/>
<g id="Layer_47"/>
<g id="Layer_48"/>
<g id="Layer_49"/>
<g id="Layer_50">
<g>
<path d="M141.053,214.275c-61.167,3.894-111.65,27.057-130.8,36.999c-3.669,1.905-3.669,7.152,0,9.057    c19.15,9.942,69.634,33.105,130.8,36.999c71.704,4.565,67.413-34.076,66.186-40.601c-0.116-0.617-0.116-1.237,0-1.854    C208.467,248.35,212.758,209.71,141.053,214.275z" fill="#FF9000"/>
<path d="M214.082,370.417c3.915,60.941,27.224,111.227,37.197,130.25c1.912,3.646,7.133,3.646,9.045,0    c9.973-19.023,33.282-69.31,37.197-130.25c4.588-71.415-34.277-67.098-40.8-65.879c-0.612,0.114-1.228,0.114-1.84,0    C248.359,303.319,209.493,299.003,214.082,370.417z" fill="#FF9000"/>
<path d="M370.947,297.725c61.167-3.894,111.65-27.057,130.8-36.999c3.669-1.905,3.669-7.152,0-9.057    c-19.15-9.942-69.633-33.105-130.8-36.999c-71.704-4.565-67.413,34.076-66.186,40.601c0.116,0.617,0.116,1.237,0,1.854    C303.533,263.65,299.242,302.29,370.947,297.725z" fill="#FF9000"/>
<path d="M297.918,141.583c-3.915-60.941-27.224-111.227-37.197-130.25c-1.912-3.646-7.133-3.646-9.045,0    c-9.973,19.023-33.282,69.31-37.197,130.25c-4.588,71.415,34.277,67.098,40.8,65.879c0.612-0.114,1.228-0.114,1.84,0    C263.641,208.681,302.507,212.997,297.918,141.583z" fill="#FF9000"/>
<path d="M207.24,254.875c1.223-6.501,5.476-44.87-65.39-40.645c49.875,3.557,46.353,34.834,45.26,40.645    c-0.116,0.617-0.116,1.237,0,1.854c1.093,5.811,4.615,37.087-45.26,40.645c70.867,4.225,66.613-34.144,65.391-40.645    C207.124,256.112,207.124,255.492,207.24,254.875z" fill="#F88000"/>
<path d="M256.721,304.538c-0.612,0.114-1.228,0.114-1.84,0c-1.554-0.29-4.945-0.754-9.145-0.331    c13.431,1.355,35.149,11.808,31.654,66.21c-3.302,51.394-20.397,95.21-31.654,119.087c2.091,4.435,3.981,8.183,5.543,11.163    c1.912,3.646,7.133,3.646,9.044,0c9.973-19.023,33.282-69.31,37.197-130.25C302.109,299.003,263.244,303.319,256.721,304.538z" fill="#F88000"/>
<path d="M297.918,141.583c-3.915-60.941-27.224-111.228-37.197-130.25c-1.912-3.646-7.133-3.646-9.044,0    c-1.562,2.98-3.452,6.728-5.543,11.163c11.257,23.877,28.352,67.693,31.654,119.087c3.495,54.402-18.224,64.855-31.654,66.21    c4.2,0.424,7.591-0.04,9.145-0.33c0.612-0.115,1.228-0.115,1.84,0C263.641,208.681,302.507,212.997,297.918,141.583z" fill="#F88000"/>
<path d="M204.361,145.59c-46.05-40.328-98.243-59.48-118.817-65.916c-3.938-1.232-7.636,2.473-6.394,6.406    c6.475,20.501,25.717,72.424,66.21,118.238c47.472,53.71,71.887,23.339,75.645,17.872c0.354-0.515,0.792-0.951,1.309-1.303    C227.804,217.15,258.324,192.847,204.361,145.59z" fill="#FFBE73"/>
<path d="M204.361,145.59c-46.05-40.328-98.243-59.48-118.817-65.916c-3.322-1.039-6.461,1.438-6.62,4.598    c25.148,9.194,67.309,28.042,105.306,61.317c53.962,47.257,23.442,71.559,17.954,75.298c-0.517,0.352-0.955,0.788-1.309,1.303    c-1.559,2.268-6.677,8.818-15.517,11.877c21.498,6.415,33.147-8.24,35.648-11.877c0.354-0.515,0.792-0.951,1.309-1.303    C227.803,217.15,258.324,192.847,204.361,145.59z" fill="#FFB25A"/>
<path d="M145.08,307.401c-40.493,45.814-59.735,97.737-66.21,118.238c-1.242,3.933,2.455,7.638,6.394,6.406    c20.574-6.435,72.767-25.588,118.817-65.916c53.962-47.257,23.442-71.56,17.954-75.298c-0.517-0.352-0.955-0.788-1.309-1.303    C216.967,284.062,192.552,253.691,145.08,307.401z" fill="#FFBE73"/>
<path d="M222.034,290.832c-0.517-0.352-0.954-0.788-1.309-1.303c-2.501-3.637-14.15-18.292-35.648-11.877    c8.84,3.059,13.958,9.609,15.517,11.877c0.354,0.515,0.792,0.951,1.309,1.303c5.489,3.738,36.009,28.041-17.953,75.298    c-37.997,33.275-80.158,52.124-105.306,61.317c0.159,3.161,3.297,5.638,6.62,4.598c20.574-6.435,72.767-25.588,118.817-65.915    C258.043,318.873,227.522,294.57,222.034,290.832z" fill="#FFB25A"/>
<path d="M307.639,366.41c46.05,40.328,98.243,59.48,118.817,65.916c3.938,1.232,7.636-2.473,6.394-6.406    c-6.475-20.501-25.717-72.423-66.21-118.238c-47.472-53.71-71.887-23.339-75.645-17.872c-0.354,0.515-0.792,0.951-1.309,1.303    C284.196,294.85,253.676,319.153,307.639,366.41z" fill="#FFBE73"/>
<path d="M432.849,425.919c-6.475-20.501-25.717-72.423-66.21-118.238c-27.779-31.429-47.659-34.064-60.128-29.749    c10.812,3.226,24.112,11.776,39.998,29.749c40.493,45.815,59.735,97.737,66.21,118.238c0.194,0.615,0.256,1.222,0.226,1.808    c5.33,1.948,9.913,3.473,13.511,4.598C430.394,433.557,434.092,429.852,432.849,425.919z" fill="#FFB25A"/>
<path d="M366.92,204.599c40.493-45.814,59.735-97.737,66.21-118.238c1.242-3.933-2.455-7.638-6.394-6.406    c-20.574,6.435-72.767,25.588-118.817,65.916c-53.962,47.257-23.442,71.56-17.954,75.298c0.517,0.352,0.955,0.788,1.309,1.303    C295.033,227.938,319.448,258.309,366.92,204.599z" fill="#FFBE73"/>
<path d="M426.737,79.955c-3.598,1.125-8.181,2.65-13.511,4.598c0.029,0.586-0.032,1.193-0.226,1.808    c-6.475,20.501-25.717,72.424-66.21,118.238c-15.886,17.973-29.186,26.523-39.997,29.749c12.47,4.315,32.349,1.68,60.128-29.749    c40.493-45.814,59.735-97.737,66.21-118.238C434.373,82.428,430.675,78.722,426.737,79.955z" fill="#FFB25A"/>
<path d="M501.747,251.669c-19.151-9.942-69.634-33.105-130.8-36.999c-7.852-0.5-14.792-0.482-20.926-0.044    c0.267,0.016,0.526,0.027,0.795,0.044c61.167,3.894,111.65,27.057,130.8,36.999c3.669,1.905,3.669,7.152,0,9.057    c-19.151,9.942-69.634,33.105-130.8,36.999c-0.27,0.017-0.528,0.028-0.796,0.044c6.134,0.437,13.074,0.456,20.926-0.044    c61.167-3.894,111.65-27.057,130.8-36.999C505.416,258.821,505.416,253.574,501.747,251.669z" fill="#F88000"/>
<ellipse cx="256" cy="256" fill="#FFA83F" rx="55.497" ry="55.241"/>
<path d="M256,200.759c-3.439,0-6.799,0.327-10.065,0.923c25.842,4.715,45.431,27.232,45.431,54.318    c0,27.086-19.589,49.602-45.431,54.318c3.266,0.596,6.626,0.923,10.065,0.923c30.65,0,55.497-24.732,55.497-55.241    S286.65,200.759,256,200.759z" fill="#FF9C20"/>
</g>
<g>
<g>
<path d="M297.997,165.831c-0.044,0-0.088,0-0.131-0.001c-4.142-0.071-7.441-3.485-7.371-7.627     c0.067-3.952-0.045-8.221-0.335-12.686c-0.09-1.31-0.176-2.573-0.28-3.837c-0.081-1.092-0.167-2.111-0.263-3.121     c-0.01-0.104-0.018-0.207-0.022-0.312c-0.071-0.774-0.142-1.549-0.221-2.315l-0.151-1.493c-0.095-0.937-0.198-1.866-0.312-2.794     c-0.004-0.036-0.009-0.072-0.013-0.107c-0.084-0.784-0.177-1.566-0.28-2.349c-0.112-0.902-0.219-1.753-0.334-2.603l-0.057-0.425     c-0.099-0.739-0.197-1.483-0.305-2.22c-0.22-1.56-0.455-3.074-0.688-4.579c-0.375-2.354-0.678-4.145-0.978-5.781     c-0.154-0.909-0.303-1.712-0.459-2.507c-0.008-0.036-0.015-0.072-0.021-0.108c-0.319-1.75-0.66-3.493-1.013-5.18     c-0.319-1.563-0.641-3.071-0.971-4.56c-0.177-0.805-0.35-1.581-0.531-2.356c-0.171-0.774-0.33-1.445-0.489-2.116l-0.037-0.156     c-1.024-4.336-2.143-8.678-3.325-12.908l-0.795-2.79c-3.108-10.77-6.806-21.555-10.988-32.04     c-0.449-1.125-0.891-2.226-1.333-3.307c-1.158-2.83-2.43-5.805-3.888-9.094l-1.278-2.839c-0.354-0.774-0.7-1.529-1.046-2.268     l-0.295-0.631c-0.2-0.429-0.398-0.853-0.596-1.267c-0.269-0.58-0.506-1.072-0.742-1.555c-0.149-0.309-0.288-0.598-0.417-0.875     l-0.384-0.783c-0.19-0.392-0.376-0.774-0.562-1.146c-0.289-0.578-0.566-1.135-0.834-1.68c-0.021-0.04-0.04-0.08-0.06-0.12     l-0.77,1.548c-0.381,0.753-0.722,1.453-1.062,2.171c-0.275,0.564-0.509,1.05-0.742,1.545c-0.282,0.585-0.537,1.124-0.792,1.672     c-0.017,0.035-0.032,0.069-0.05,0.104c-0.248,0.515-0.496,1.049-0.745,1.592c-0.672,1.452-1.354,2.951-2.045,4.519     c-0.021,0.049-0.043,0.097-0.065,0.146c-0.111,0.238-0.216,0.476-0.319,0.721c-0.019,0.045-0.038,0.089-0.058,0.133     c-0.273,0.614-0.548,1.237-0.821,1.879c-0.024,0.056-0.049,0.111-0.073,0.166c-0.104,0.228-0.208,0.462-0.305,0.703     c-0.033,0.083-0.068,0.166-0.104,0.248c-0.242,0.546-0.478,1.092-0.702,1.654c-0.03,0.075-0.062,0.15-0.094,0.225     c-0.146,0.33-0.282,0.661-0.421,0.992l-0.047,0.113c-0.299,0.709-0.585,1.396-0.871,2.101c-1.052,2.57-1.9,4.702-2.68,6.733     c-0.308,0.785-0.598,1.531-0.878,2.296c-0.014,0.039-0.028,0.077-0.043,0.115c-0.213,0.556-0.422,1.117-0.633,1.683l-0.325,0.871     c-0.393,1.054-0.783,2.145-1.18,3.252l-0.214,0.596c-2.362,6.657-4.512,13.338-6.382,19.833l-0.804,2.819     c-1.18,4.224-2.298,8.566-3.313,12.869c-0.175,0.732-0.345,1.452-0.506,2.183c-0.008,0.034-0.016,0.068-0.023,0.103     c-0.182,0.772-0.354,1.546-0.524,2.328c-0.335,1.508-0.656,3.016-0.968,4.543c-0.36,1.723-0.701,3.466-1.021,5.216     c-0.006,0.036-0.013,0.072-0.021,0.108c-0.157,0.798-0.306,1.604-0.445,2.42c-0.314,1.728-0.617,3.52-0.996,5.897     c-0.23,1.479-0.465,2.992-0.68,4.516c-0.116,0.805-0.221,1.592-0.325,2.373l-0.037,0.283c-0.11,0.802-0.207,1.581-0.305,2.36     l-0.028,0.221c-0.106,0.817-0.2,1.601-0.283,2.384c-0.005,0.039-0.009,0.077-0.014,0.116c-0.113,0.926-0.218,1.853-0.312,2.787     l-0.15,1.487c-0.082,0.787-0.153,1.572-0.225,2.356c-0.006,0.097-0.012,0.19-0.021,0.276c-0.095,1.013-0.181,2.034-0.257,3.063     c-0.112,1.351-0.199,2.631-0.286,3.922c-0.279,4.384-0.393,8.606-0.334,12.521c0.062,4.143-3.245,7.55-7.387,7.611     c-0.038,0.001-0.077,0.001-0.114,0.001c-4.091,0-7.436-3.284-7.497-7.388c-0.064-4.307,0.058-8.926,0.364-13.728     c0.094-1.398,0.187-2.759,0.301-4.119c0.073-0.992,0.16-2.039,0.257-3.079c0.005-0.086,0.01-0.169,0.018-0.245     c0.082-0.91,0.165-1.82,0.259-2.721l0.148-1.468c0.103-1.018,0.217-2.033,0.341-3.047c0.095-0.879,0.199-1.756,0.313-2.634     l0.023-0.184c0.104-0.834,0.209-1.668,0.323-2.502l0.034-0.258c0.111-0.835,0.224-1.677,0.344-2.51     c0.221-1.571,0.467-3.157,0.713-4.734c0.4-2.516,0.721-4.41,1.042-6.169c0.144-0.845,0.312-1.757,0.489-2.662     c0.34-1.859,0.702-3.713,1.078-5.508c0.321-1.577,0.66-3.169,1.01-4.741c0.18-0.82,0.363-1.65,0.559-2.48     c0.175-0.793,0.36-1.575,0.546-2.358c1.06-4.487,2.229-9.027,3.473-13.481l0.827-2.898c1.952-6.785,4.196-13.758,6.668-20.724     l0.22-0.613c0.418-1.167,0.831-2.317,1.251-3.446l0.319-0.855c0.222-0.594,0.441-1.184,0.666-1.769     c0.312-0.855,0.637-1.689,0.959-2.514c0.802-2.088,1.688-4.315,2.772-6.965c0.304-0.75,0.617-1.503,0.932-2.247l0.032-0.077     c0.157-0.378,0.314-0.755,0.479-1.133c0.265-0.657,0.539-1.298,0.821-1.937c0.156-0.383,0.319-0.756,0.484-1.12     c0.285-0.667,0.57-1.316,0.854-1.956c0.155-0.364,0.312-0.719,0.477-1.074c0.718-1.628,1.427-3.186,2.114-4.674     c0.274-0.598,0.557-1.205,0.841-1.793c0.276-0.595,0.554-1.179,0.83-1.753c0.239-0.509,0.506-1.064,0.773-1.608     c0.356-0.754,0.756-1.573,1.155-2.36l0.96-1.931c0.265-0.539,0.532-1.064,0.801-1.578c0.203-0.398,0.426-0.834,0.648-1.257     c0.214-0.419,0.428-0.835,0.641-1.241v0.001c0.035-0.066,0.071-0.132,0.108-0.198c2.778-5.276,4.541-8.195,4.615-8.317     c1.357-2.242,3.788-3.613,6.409-3.615c0.002,0,0.004,0,0.006,0c2.619,0,5.049,1.366,6.409,3.605     c0.075,0.122,1.843,3.041,4.616,8.335c0.038,0.067,0.074,0.134,0.108,0.199l1.878,3.642c0.169,0.336,0.342,0.678,0.515,1.031     c0.248,0.507,0.51,1.03,0.781,1.573c0.209,0.419,0.419,0.849,0.633,1.287l0.397,0.813c0.027,0.055,0.054,0.11,0.079,0.166     c0.101,0.218,0.21,0.445,0.32,0.672c0.271,0.554,0.554,1.142,0.837,1.753c0.18,0.377,0.393,0.833,0.609,1.296l0.286,0.612     c0.366,0.78,0.73,1.576,1.104,2.392l1.331,2.954c1.538,3.472,2.864,6.575,4.077,9.538c0.457,1.117,0.914,2.257,1.382,3.427     c4.366,10.947,8.226,22.201,11.473,33.455l0.819,2.872c1.244,4.453,2.413,8.993,3.483,13.522l0.036,0.154     c0.177,0.744,0.353,1.49,0.52,2.245c0.176,0.75,0.364,1.595,0.552,2.448c0.345,1.553,0.684,3.145,1.013,4.758     c0.368,1.759,0.73,3.61,1.069,5.47c0.179,0.908,0.348,1.826,0.506,2.756c0.394,2.15,0.755,4.37,1.022,6.053     c0.25,1.604,0.495,3.189,0.72,4.785c0.111,0.763,0.219,1.567,0.325,2.368l0.053,0.396c0.121,0.888,0.235,1.797,0.348,2.707     c0.109,0.828,0.214,1.705,0.31,2.585c0.123,1.014,0.236,2.027,0.341,3.051l0.15,1.496c0.091,0.873,0.174,1.783,0.256,2.693     c0.009,0.088,0.015,0.177,0.02,0.266c0.097,1.034,0.184,2.077,0.262,3.129c0.105,1.271,0.197,2.606,0.289,3.952     c0.322,4.96,0.444,9.642,0.37,14.001C305.423,162.557,302.079,165.831,297.997,165.831z"/>
</g>
<g>
<path d="M152.829,307.626c-3.625,0-7.505-0.128-11.509-0.381c-62.304-3.969-113.719-27.609-132.932-37.59     c-4.179-2.163-6.779-6.436-6.78-11.148c0-4.713,2.601-8.987,6.787-11.156c19.206-9.977,70.621-33.617,132.923-37.585     c4.885-0.317,9.587-0.438,13.965-0.364c4.142,0.07,7.441,3.485,7.371,7.627c-0.07,4.098-3.414,7.372-7.496,7.372     c-0.044,0-0.087,0-0.131-0.001c-3.969-0.068-8.262,0.045-12.749,0.335c-55.341,3.524-101.747,23.348-122.721,33.77     c20.984,10.428,67.386,30.246,122.714,33.77c4.426,0.279,8.665,0.392,12.614,0.336c4.161-0.065,7.614,3.32,7.614,7.499     c0,4.143-3.353,7.5-7.495,7.5C154.291,307.621,153.565,307.626,152.829,307.626z M15.294,256.34     c0.001,0.001,0.004,0.002,0.005,0.002C15.297,256.342,15.296,256.341,15.294,256.34z"/>
</g>
<g>
<path d="M255.801,512.001c-4.694,0-8.964-2.584-11.142-6.744c-10.036-19.142-33.813-70.371-37.8-132.397     c-0.316-4.868-0.438-9.55-0.364-13.909c0.07-4.099,3.414-7.372,7.496-7.372c0.044,0,0.088,0,0.131,0.001     c4.142,0.071,7.441,3.485,7.371,7.627c-0.067,3.952,0.045,8.221,0.335,12.686c3.541,55.105,23.498,101.346,33.97,122.213     c10.472-20.886,30.424-67.147,33.962-122.208c0.28-4.401,0.394-8.624,0.335-12.547c-0.062-4.143,3.245-7.55,7.387-7.611     c0.038-0.001,0.077-0.001,0.114-0.001c4.091,0,7.436,3.284,7.497,7.388c0.064,4.315-0.058,8.934-0.364,13.729     c-3.982,61.989-27.755,113.243-37.791,132.403C264.763,509.417,260.495,512,255.801,512.001z"/>
</g>
<g>
<path d="M359.01,308.025c-0.771,0-1.533-0.006-2.286-0.017c-4.142-0.061-7.449-3.467-7.389-7.609     c0.06-4.104,3.406-7.39,7.497-7.39c0.037,0,0.074,0,0.112,0.001c3.987,0.057,8.287-0.055,12.781-0.336     c55.336-3.524,101.746-23.352,122.717-33.774c-20.978-10.426-67.381-30.251-122.725-33.776     c-4.412-0.279-8.654-0.393-12.614-0.335c-0.037,0.001-0.074,0.001-0.111,0.001c-4.092,0-7.437-3.286-7.497-7.391     c-0.061-4.142,3.248-7.548,7.39-7.608c4.35-0.062,8.986,0.06,13.785,0.363c62.308,3.969,113.719,27.61,132.931,37.591     c4.179,2.163,6.779,6.438,6.78,11.153c0,4.716-2.601,8.992-6.787,11.161c-19.206,9.977-70.621,33.617-132.923,37.585     C366.627,307.898,362.717,308.025,359.01,308.025z M496.69,261.059c0.002,0,0.003,0.001,0.005,0.002     C496.694,261.06,496.691,261.059,496.69,261.059z"/>
</g>
<g>
<path d="M297.997,165.831c-0.044,0-0.088,0-0.131-0.001c-4.142-0.071-7.441-3.485-7.371-7.627     c0.067-3.952-0.045-8.221-0.335-12.686c-0.09-1.31-0.176-2.573-0.28-3.837c-0.081-1.092-0.167-2.111-0.263-3.121     c-0.01-0.104-0.018-0.207-0.022-0.312c-0.071-0.774-0.142-1.549-0.221-2.315l-0.25-2.396c-0.068-0.632-0.137-1.262-0.214-1.891     c-0.004-0.036-0.009-0.072-0.013-0.107c-0.084-0.784-0.177-1.566-0.28-2.349c-0.112-0.902-0.219-1.753-0.334-2.603l-0.057-0.425     c-0.099-0.739-0.197-1.483-0.305-2.22c-0.22-1.56-0.455-3.074-0.688-4.579c-0.375-2.354-0.678-4.145-0.978-5.781     c-0.154-0.909-0.303-1.712-0.459-2.507c-0.008-0.036-0.015-0.072-0.021-0.108c-0.319-1.75-0.66-3.493-1.013-5.18     c-0.319-1.563-0.641-3.071-0.971-4.56c-0.177-0.805-0.35-1.581-0.531-2.356c-0.171-0.774-0.33-1.445-0.489-2.116l-0.037-0.156     c-1.024-4.336-2.143-8.678-3.325-12.908l-0.795-2.79c-3.108-10.77-6.806-21.555-10.988-32.04     c-0.449-1.125-0.891-2.226-1.333-3.307c-1.158-2.83-2.43-5.805-3.888-9.094l-1.278-2.839c-0.354-0.774-0.7-1.529-1.046-2.268     l-0.295-0.631c-0.2-0.429-0.398-0.853-0.596-1.267c-0.269-0.58-0.506-1.072-0.742-1.555c-0.149-0.309-0.288-0.598-0.417-0.875     l-0.384-0.783c-0.19-0.392-0.376-0.774-0.562-1.146c-0.289-0.578-0.566-1.135-0.834-1.68c-0.021-0.041-0.041-0.082-0.061-0.123     c-0.268,0.533-0.515,1.036-0.769,1.551c-0.381,0.753-0.722,1.453-1.062,2.171c-0.275,0.564-0.509,1.05-0.742,1.545     c-0.282,0.585-0.537,1.124-0.792,1.672c-0.017,0.035-0.032,0.069-0.05,0.104c-0.248,0.515-0.496,1.049-0.745,1.591     c-0.672,1.453-1.354,2.952-2.045,4.52c-0.021,0.049-0.043,0.097-0.065,0.146c-0.111,0.238-0.216,0.476-0.319,0.721     c-0.019,0.045-0.038,0.089-0.058,0.133c-0.273,0.614-0.548,1.237-0.821,1.879c-0.024,0.056-0.049,0.111-0.073,0.166     c-0.104,0.228-0.208,0.462-0.305,0.703c-0.033,0.083-0.068,0.166-0.104,0.248c-0.242,0.546-0.478,1.092-0.702,1.654     c-0.03,0.075-0.062,0.15-0.094,0.225c-0.146,0.33-0.282,0.661-0.421,0.992l-0.047,0.113c-0.299,0.709-0.585,1.396-0.871,2.101     c-1.052,2.57-1.9,4.702-2.68,6.733c-0.308,0.785-0.598,1.531-0.878,2.296c-0.014,0.039-0.028,0.077-0.043,0.115     c-0.213,0.556-0.422,1.117-0.633,1.683l-0.325,0.871c-0.459,1.23-0.922,2.507-1.377,3.803     c-2.379,6.702-4.528,13.383-6.398,19.878l-0.804,2.819c-1.18,4.224-2.298,8.566-3.313,12.869     c-0.175,0.732-0.345,1.452-0.506,2.183c-0.008,0.034-0.016,0.068-0.023,0.103c-0.182,0.772-0.354,1.546-0.524,2.328     c-0.335,1.508-0.656,3.016-0.968,4.543c-0.36,1.723-0.701,3.466-1.021,5.216c-0.006,0.036-0.013,0.072-0.021,0.108     c-0.157,0.798-0.306,1.603-0.445,2.42c-0.314,1.728-0.617,3.52-0.996,5.897c-0.23,1.479-0.465,2.992-0.68,4.516     c-0.116,0.805-0.221,1.592-0.325,2.373l-0.037,0.283c-0.11,0.802-0.207,1.581-0.305,2.36l-0.028,0.221     c-0.106,0.817-0.2,1.601-0.283,2.384c-0.005,0.039-0.009,0.077-0.014,0.116c-0.077,0.629-0.146,1.259-0.214,1.891l-0.249,2.384     c-0.082,0.787-0.153,1.572-0.225,2.356c-0.006,0.097-0.012,0.19-0.021,0.276c-0.095,1.013-0.181,2.034-0.257,3.063     c-0.112,1.351-0.199,2.631-0.286,3.922c-0.279,4.384-0.393,8.606-0.334,12.521c0.062,4.143-3.245,7.55-7.387,7.611     c-0.038,0.001-0.077,0.001-0.114,0.001c-4.091,0-7.436-3.284-7.497-7.388c-0.064-4.307,0.058-8.926,0.364-13.728     c0.094-1.398,0.187-2.759,0.301-4.119c0.073-0.992,0.16-2.039,0.257-3.079c0.005-0.086,0.01-0.169,0.018-0.245     c0.082-0.91,0.165-1.82,0.259-2.721l0.259-2.471c0.073-0.684,0.147-1.363,0.23-2.044c0.094-0.878,0.199-1.756,0.313-2.634     l0.023-0.184c0.104-0.834,0.209-1.668,0.323-2.502l0.034-0.258c0.111-0.835,0.224-1.677,0.344-2.51     c0.221-1.571,0.467-3.157,0.713-4.734c0.4-2.516,0.721-4.41,1.042-6.169c0.144-0.845,0.312-1.757,0.489-2.662     c0.34-1.859,0.702-3.713,1.078-5.508c0.321-1.577,0.66-3.169,1.01-4.741c0.18-0.82,0.363-1.65,0.559-2.48     c0.175-0.793,0.36-1.575,0.546-2.358c1.06-4.487,2.229-9.027,3.473-13.481l0.827-2.898c1.952-6.785,4.196-13.758,6.668-20.724     c0.479-1.361,0.975-2.726,1.471-4.06l0.319-0.855c0.222-0.594,0.441-1.184,0.665-1.768c0.313-0.855,0.638-1.69,0.96-2.515     c0.802-2.088,1.688-4.315,2.772-6.965c0.304-0.75,0.617-1.503,0.932-2.247l0.032-0.077c0.157-0.378,0.314-0.755,0.479-1.133     c0.265-0.657,0.539-1.298,0.821-1.937c0.156-0.383,0.319-0.756,0.484-1.12c0.285-0.667,0.57-1.316,0.854-1.956     c0.155-0.364,0.312-0.719,0.477-1.074c0.718-1.628,1.427-3.186,2.114-4.674c0.274-0.598,0.557-1.205,0.841-1.793     c0.276-0.595,0.554-1.179,0.83-1.753c0.239-0.509,0.506-1.064,0.773-1.608c0.356-0.754,0.756-1.573,1.155-2.36     c0.313-0.638,0.657-1.334,1-2.012c0.225-0.458,0.492-0.983,0.761-1.497c0.203-0.398,0.426-0.834,0.648-1.257     c0.214-0.419,0.428-0.835,0.641-1.24l0,0c0.047-0.089,0.097-0.179,0.146-0.267c2.174-3.962,6.386-6.456,10.985-6.457     c4.569-0.001,8.757,2.461,10.977,6.436c0.058,0.1,0.113,0.199,0.164,0.296l1.878,3.642c0.169,0.336,0.342,0.678,0.515,1.031     c0.248,0.507,0.51,1.03,0.781,1.573c0.209,0.419,0.419,0.849,0.633,1.287l0.397,0.813c0.027,0.055,0.054,0.11,0.079,0.166     c0.101,0.218,0.21,0.445,0.32,0.672c0.271,0.554,0.554,1.142,0.837,1.753c0.18,0.377,0.393,0.833,0.609,1.296l0.286,0.612     c0.366,0.78,0.73,1.576,1.104,2.392l1.331,2.954c1.538,3.472,2.864,6.575,4.077,9.538c0.457,1.117,0.914,2.257,1.382,3.427     c4.366,10.947,8.226,22.201,11.473,33.455l0.819,2.872c1.244,4.453,2.413,8.993,3.483,13.522l0.036,0.154     c0.177,0.744,0.353,1.49,0.52,2.245c0.176,0.75,0.364,1.595,0.552,2.448c0.345,1.553,0.684,3.145,1.013,4.758     c0.368,1.759,0.73,3.61,1.069,5.47c0.179,0.908,0.348,1.826,0.506,2.756c0.394,2.15,0.755,4.37,1.022,6.053     c0.25,1.604,0.495,3.189,0.72,4.785c0.111,0.763,0.219,1.567,0.325,2.368l0.053,0.396c0.121,0.888,0.235,1.797,0.348,2.707     c0.109,0.828,0.214,1.706,0.31,2.586c0.083,0.682,0.157,1.363,0.23,2.048l0.261,2.498c0.091,0.873,0.174,1.783,0.256,2.693     c0.009,0.088,0.015,0.177,0.02,0.266c0.097,1.034,0.184,2.077,0.262,3.129c0.105,1.271,0.197,2.606,0.289,3.952     c0.322,4.96,0.444,9.642,0.37,14.001C305.423,162.556,302.079,165.831,297.997,165.831z M254.05,19.124L254.05,19.124     c0.005,0.011,0.011,0.021,0.017,0.031C254.061,19.146,254.056,19.135,254.05,19.124z"/>
</g>
<g>
<path d="M196.175,246.009c-8.81,0-19.632-2.996-32.283-11.984c-4.516-3.189-9.217-7.144-13.957-11.739     c-1.218-1.169-2.518-2.472-3.945-3.957c-1.796-1.856-3.663-3.882-5.536-6.004c-41.236-46.658-60.809-99.593-67.31-120.186     c-1.418-4.458-0.243-9.307,3.069-12.638c3.321-3.337,8.174-4.542,12.667-3.141c20.689,6.469,73.862,25.944,120.756,67.007     c3.741,3.284,7.149,6.503,10.136,9.573c19.841,20.331,27.313,39.316,22.207,56.422c-0.05,0.178-0.106,0.354-0.169,0.526     c-0.591,1.871-1.332,3.69-2.205,5.413c-1.873,3.694-6.388,5.171-10.081,3.298c-3.694-1.873-5.171-6.387-3.298-10.081     c0.537-1.059,0.989-2.187,1.346-3.355c0.025-0.083,0.052-0.166,0.08-0.247c3.274-11.316-3.159-25.661-18.624-41.508     c-2.721-2.798-5.841-5.743-9.28-8.763c-41.659-36.478-88.6-55.127-110.829-62.512c7.433,22.149,26.166,68.835,62.778,110.26     c1.727,1.956,3.438,3.813,5.092,5.523c1.302,1.354,2.462,2.518,3.562,3.572c4.213,4.085,8.312,7.54,12.214,10.295     c12.882,9.153,24.051,11.515,33.217,7.028c3.72-1.82,8.212-0.28,10.033,3.441c1.82,3.721,0.279,8.212-3.441,10.033     C208.133,244.36,202.707,246.009,196.175,246.009z M87.443,87.607c0,0.003,0.002,0.006,0.002,0.009     C87.445,87.613,87.444,87.61,87.443,87.607z"/>
</g>
<g>
<path d="M84.837,441.343c-3.292,0.001-6.496-1.295-8.898-3.708c-3.315-3.331-4.493-8.183-3.073-12.661     c6.497-20.58,26.066-73.503,67.309-120.171c1.616-1.828,3.195-3.551,4.695-5.121c1.561-1.65,3.221-3.328,4.911-4.963     c0.078-0.075,0.158-0.149,0.239-0.221c4.936-4.757,9.86-8.838,14.637-12.132c21.65-14.944,37.869-12.285,47.664-7.424     c3.71,1.843,5.224,6.344,3.382,10.054c-1.843,3.709-6.341,5.226-10.054,3.382c-8.988-4.465-19.914-2.334-32.473,6.335     c-4.175,2.879-8.533,6.508-12.955,10.787c-0.076,0.073-0.152,0.145-0.23,0.214c-1.456,1.413-2.883,2.859-4.247,4.301     c-1.392,1.458-2.84,3.038-4.329,4.723c-36.628,41.445-55.358,88.135-62.78,110.258c22.232-7.395,69.199-26.064,110.84-62.519     c3.323-2.911,6.403-5.817,9.152-8.635c15.602-15.951,22.068-30.38,18.707-41.731c-0.351-1.188-0.794-2.316-1.318-3.357     c-1.862-3.7-0.373-8.209,3.326-10.072c3.702-1.86,8.21-0.372,10.072,3.326c0.926,1.841,1.701,3.809,2.305,5.85     c5.067,17.115-2.455,36.115-22.362,56.467c-3.015,3.09-6.381,6.267-9.999,9.436c-46.861,41.024-100.055,60.526-120.75,67.006     C87.365,441.154,86.094,441.343,84.837,441.343z M87.168,429.493c0,0.001-0.001,0.003-0.001,0.004     C87.167,429.496,87.168,429.494,87.168,429.493z"/>
</g>
<g>
<path d="M426.881,441.617c-1.265,0-2.54-0.191-3.789-0.584c-20.67-6.462-73.838-25.932-120.739-66.99     c-3.741-3.285-7.149-6.504-10.136-9.574c-19.9-20.392-27.358-39.429-22.161-56.575c0.592-1.965,1.373-3.92,2.318-5.798     c1.864-3.698,6.372-5.186,10.072-3.326c3.699,1.863,5.188,6.372,3.326,10.072c-0.556,1.103-1.012,2.243-1.357,3.391     c-3.446,11.367,2.968,25.806,18.546,41.768c2.721,2.798,5.841,5.743,9.28,8.763c41.664,36.473,88.602,55.118,110.829,62.502     c-7.431-22.143-26.165-68.833-62.777-110.248c-2.96-3.349-5.878-6.415-8.672-9.113c-16.047-15.55-30.579-21.992-42.019-18.637     c-1.187,0.352-2.325,0.795-3.363,1.311c-3.713,1.839-8.211,0.327-10.054-3.382c-1.842-3.71-0.328-8.211,3.382-10.054     c1.811-0.898,3.76-1.66,5.794-2.263c17.197-5.04,36.262,2.447,56.691,22.244c3.066,2.963,6.259,6.315,9.479,9.958     c41.237,46.648,60.811,99.584,67.313,120.179c1.419,4.475,0.238,9.33-3.085,12.66     C433.362,440.327,430.164,441.617,426.881,441.617z M424.543,429.781c0,0.002,0.001,0.003,0.001,0.005     C424.544,429.785,424.543,429.782,424.543,429.781z M427.575,426.719c0.003,0.001,0.004,0.001,0.006,0.002     C427.579,426.72,427.577,426.72,427.575,426.719z"/>
</g>
<g>
<path d="M316.29,246.332c-3.701,0-7.321-0.533-10.863-1.602c-1.988-0.6-3.932-1.367-5.774-2.28     c-3.711-1.841-5.228-6.341-3.388-10.052c1.841-3.711,6.337-5.228,10.052-3.388c1.093,0.543,2.251,0.999,3.441,1.358     c11.423,3.447,25.958-2.937,42.022-18.471c2.892-2.794,5.849-5.899,8.792-9.232c36.621-41.428,55.354-88.121,62.78-110.252     c-22.243,7.391-69.177,26.04-110.837,62.519c-3.323,2.912-6.403,5.818-9.152,8.636c-15.604,15.945-22.07,30.374-18.707,41.731     c0.349,1.175,0.796,2.316,1.327,3.386c1.841,3.711,0.325,8.211-3.385,10.053c-3.713,1.842-8.212,0.323-10.053-3.385     c-0.912-1.839-1.676-3.786-2.271-5.788c-5.073-17.134,2.45-36.135,22.359-56.48c3.014-3.089,6.38-6.266,9.998-9.436     c46.894-41.064,100.069-60.54,120.753-67.007c4.476-1.408,9.331-0.217,12.656,3.116c3.322,3.33,4.503,8.184,3.082,12.668     c-6.498,20.585-26.071,73.519-67.31,120.17c-3.201,3.626-6.435,7.02-9.607,10.087     C345.937,238.413,330.542,246.331,316.29,246.332z M427.874,90.955c-0.003,0.001-0.004,0.001-0.006,0.002     C427.87,90.957,427.872,90.956,427.874,90.955z"/>
</g>
<g>
<path d="M255.995,318.31c-18.699,0-35.979-8.467-47.41-23.228c-8.138-10.502-12.439-23.083-12.439-36.382     c0-13.57,4.457-26.349,12.889-36.957c11.437-14.395,28.555-22.653,46.961-22.653c10.17,0,20.211,2.587,29.037,7.48     c7.501,4.142,14.159,9.985,19.244,16.894c7.566,10.257,11.568,22.443,11.568,35.235c0,12.297-3.732,24.106-10.794,34.152     c-5.485,7.799-12.846,14.249-21.285,18.655C275.267,315.957,265.662,318.31,255.995,318.31z M255.995,214.09     c-13.805,0-26.641,6.191-35.218,16.985c-6.302,7.928-9.632,17.48-9.632,27.625c0,9.942,3.215,19.347,9.298,27.196     c8.57,11.067,21.527,17.414,35.552,17.414c7.357,0,14.362-1.715,20.821-5.096c6.334-3.307,11.852-8.143,15.964-13.99     c5.275-7.505,8.064-16.332,8.064-25.524c0-9.564-2.989-18.672-8.645-26.338c-3.813-5.182-8.802-9.56-14.43-12.667     C271.152,216.027,263.626,214.09,255.995,214.09z"/>
</g>
</g>
</g>
</svg>