<svg xmlns="http://www.w3.org/2000/svg" xml:space="preserve" baseProfile="tiny" overflow="visible" viewBox="0 0 512 512"><path fill="#FF9000" d="M141.053 214.275c-61.167 3.894-111.65 27.057-130.8 36.999-3.669 1.905-3.669 7.152 0 9.057 19.15 9.942 69.634 33.105 130.8 36.999 71.704 4.565 67.413-34.076 66.186-40.601a4.982 4.982 0 0 1 0-1.854c1.228-6.525 5.519-45.165-66.186-40.6zM214.082 370.417c3.915 60.941 27.224 111.227 37.197 130.25 1.912 3.646 7.133 3.646 9.045 0 9.973-19.023 33.282-69.31 37.197-130.25 4.588-71.415-34.277-67.098-40.8-65.879a4.992 4.992 0 0 1-1.84 0c-6.522-1.219-45.388-5.535-40.799 65.879zM370.947 297.725c61.167-3.894 111.65-27.057 130.8-36.999 3.669-1.905 3.669-7.152 0-9.057-19.15-9.942-69.633-33.105-130.8-36.999-71.704-4.565-67.413 34.076-66.186 40.601a4.982 4.982 0 0 1 0 1.854c-1.228 6.525-5.519 45.165 66.186 40.6zM297.918 141.583c-3.915-60.941-27.224-111.227-37.197-130.25-1.912-3.646-7.133-3.646-9.045 0-9.973 19.023-33.282 69.31-37.197 130.25-4.588 71.415 34.277 67.098 40.8 65.879a4.992 4.992 0 0 1 1.84 0c6.522 1.219 45.388 5.535 40.799-65.879z"/><path fill="#F88000" d="M207.24 254.875c1.223-6.501 5.476-44.87-65.39-40.645 49.875 3.557 46.353 34.834 45.26 40.645a4.982 4.982 0 0 0 0 1.854c1.093 5.811 4.615 37.087-45.26 40.645 70.867 4.225 66.613-34.144 65.391-40.645a4.961 4.961 0 0 1-.001-1.854zM256.721 304.538a4.992 4.992 0 0 1-1.84 0c-1.554-.29-4.945-.754-9.145-.331 13.431 1.355 35.149 11.808 31.654 66.21-3.302 51.394-20.397 95.21-31.654 119.087a296.266 296.266 0 0 0 5.543 11.163c1.912 3.646 7.133 3.646 9.044 0 9.973-19.023 33.282-69.31 37.197-130.25 4.589-71.414-34.276-67.098-40.799-65.879zM297.918 141.583c-3.915-60.941-27.224-111.228-37.197-130.25-1.912-3.646-7.133-3.646-9.044 0a296.266 296.266 0 0 0-5.543 11.163c11.257 23.877 28.352 67.693 31.654 119.087 3.495 54.402-18.224 64.855-31.654 66.21 4.2.424 7.591-.04 9.145-.33a4.95 4.95 0 0 1 1.84 0c6.522 1.218 45.388 5.534 40.799-65.88z"/><path fill="#FFBE73" d="M204.361 145.59c-46.05-40.328-98.243-59.48-118.817-65.916-3.938-1.232-7.636 2.473-6.394 6.406 6.475 20.501 25.717 72.424 66.21 118.238 47.472 53.71 71.887 23.339 75.645 17.872a4.976 4.976 0 0 1 1.309-1.303c5.49-3.737 36.01-28.04-17.953-75.297z"/><path fill="#FFB25A" d="M204.361 145.59c-46.05-40.328-98.243-59.48-118.817-65.916-3.322-1.039-6.461 1.438-6.62 4.598 25.148 9.194 67.309 28.042 105.306 61.317 53.962 47.257 23.442 71.559 17.954 75.298a4.976 4.976 0 0 0-1.309 1.303c-1.559 2.268-6.677 8.818-15.517 11.877 21.498 6.415 33.147-8.24 35.648-11.877a4.976 4.976 0 0 1 1.309-1.303c5.488-3.737 36.009-28.04-17.954-75.297z"/><path fill="#FFBE73" d="M145.08 307.401c-40.493 45.814-59.735 97.737-66.21 118.238-1.242 3.933 2.455 7.638 6.394 6.406 20.574-6.435 72.767-25.588 118.817-65.916 53.962-47.257 23.442-71.56 17.954-75.298a4.976 4.976 0 0 1-1.309-1.303c-3.759-5.466-28.174-35.837-75.646 17.873z"/><path fill="#FFB25A" d="M222.034 290.832a4.991 4.991 0 0 1-1.309-1.303c-2.501-3.637-14.15-18.292-35.648-11.877 8.84 3.059 13.958 9.609 15.517 11.877.354.515.792.951 1.309 1.303 5.489 3.738 36.009 28.041-17.953 75.298-37.997 33.275-80.158 52.124-105.306 61.317.159 3.161 3.297 5.638 6.62 4.598 20.574-6.435 72.767-25.588 118.817-65.915 53.962-47.257 23.441-71.56 17.953-75.298z"/><path fill="#FFBE73" d="M307.639 366.41c46.05 40.328 98.243 59.48 118.817 65.916 3.938 1.232 7.636-2.473 6.394-6.406-6.475-20.501-25.717-72.423-66.21-118.238-47.472-53.71-71.887-23.339-75.645-17.872a4.976 4.976 0 0 1-1.309 1.303c-5.49 3.737-36.01 28.04 17.953 75.297z"/><path fill="#FFB25A" d="M432.849 425.919c-6.475-20.501-25.717-72.423-66.21-118.238-27.779-31.429-47.659-34.064-60.128-29.749 10.812 3.226 24.112 11.776 39.998 29.749 40.493 45.815 59.735 97.737 66.21 118.238.194.615.256 1.222.226 1.808a304.022 304.022 0 0 0 13.511 4.598c3.938 1.232 7.636-2.473 6.393-6.406z"/><path fill="#FFBE73" d="M366.92 204.599c40.493-45.814 59.735-97.737 66.21-118.238 1.242-3.933-2.455-7.638-6.394-6.406-20.574 6.435-72.767 25.588-118.817 65.916-53.962 47.257-23.442 71.56-17.954 75.298.517.352.955.788 1.309 1.303 3.759 5.466 28.174 35.837 75.646-17.873z"/><path fill="#FFB25A" d="M426.737 79.955a304.022 304.022 0 0 0-13.511 4.598 5.122 5.122 0 0 1-.226 1.808c-6.475 20.501-25.717 72.424-66.21 118.238-15.886 17.973-29.186 26.523-39.997 29.749 12.47 4.315 32.349 1.68 60.128-29.749 40.493-45.814 59.735-97.737 66.21-118.238 1.242-3.933-2.456-7.639-6.394-6.406z"/><path fill="#F88000" d="M501.747 251.669c-19.151-9.942-69.634-33.105-130.8-36.999-7.852-.5-14.792-.482-20.926-.044.267.016.526.027.795.044 61.167 3.894 111.65 27.057 130.8 36.999 3.669 1.905 3.669 7.152 0 9.057-19.151 9.942-69.634 33.105-130.8 36.999-.27.017-.528.028-.796.044 6.134.437 13.074.456 20.926-.044 61.167-3.894 111.65-27.057 130.8-36.999 3.67-1.905 3.67-7.152.001-9.057z"/><ellipse cx="256" cy="256" fill="#FFA83F" rx="55.497" ry="55.241"/><path fill="#FF9C20" d="M256 200.759c-3.439 0-6.799.327-10.065.923 25.842 4.715 45.431 27.232 45.431 54.318s-19.589 49.602-45.431 54.318c3.266.596 6.626.923 10.065.923 30.65 0 55.497-24.732 55.497-55.241S286.65 200.759 256 200.759z"/><path d="m297.997 165.831-.131-.001a7.5 7.5 0 0 1-7.371-7.627c.067-3.952-.045-8.221-.335-12.686-.09-1.31-.176-2.573-.28-3.837a149.722 149.722 0 0 0-.263-3.121 5.386 5.386 0 0 1-.022-.312c-.071-.774-.142-1.549-.221-2.315l-.151-1.493c-.095-.937-.198-1.866-.312-2.794l-.013-.107a98.261 98.261 0 0 0-.28-2.349c-.112-.902-.219-1.753-.334-2.603l-.057-.425c-.099-.739-.197-1.483-.305-2.22-.22-1.56-.455-3.074-.688-4.579a247.987 247.987 0 0 0-.978-5.781 96.142 96.142 0 0 0-.48-2.615c-.319-1.75-.66-3.493-1.013-5.18a276.824 276.824 0 0 0-.971-4.56c-.177-.805-.35-1.581-.531-2.356-.171-.774-.33-1.445-.489-2.116l-.037-.156a330.066 330.066 0 0 0-3.325-12.908l-.795-2.79a345.247 345.247 0 0 0-10.988-32.04 425.558 425.558 0 0 0-1.333-3.307 341.197 341.197 0 0 0-3.888-9.094l-1.278-2.839c-.354-.774-.7-1.529-1.046-2.268l-.295-.631c-.2-.429-.398-.853-.596-1.267a82.367 82.367 0 0 0-.742-1.555 72.979 72.979 0 0 1-.417-.875l-.384-.783c-.19-.392-.376-.774-.562-1.146a283.44 283.44 0 0 1-.834-1.68l-.06-.12-.77 1.548a90.753 90.753 0 0 0-1.062 2.171c-.275.564-.509 1.05-.742 1.545-.282.585-.537 1.124-.792 1.672-.017.035-.032.069-.05.104a268.685 268.685 0 0 0-2.79 6.111l-.065.146a20.42 20.42 0 0 0-.319.721 125.01 125.01 0 0 0-.879 2.012l-.073.166c-.104.228-.208.462-.305.703a7.645 7.645 0 0 1-.104.248 47.162 47.162 0 0 0-.702 1.654c-.03.075-.062.15-.094.225-.146.33-.282.661-.421.992l-.047.113a326.656 326.656 0 0 0-3.551 8.834 105.952 105.952 0 0 0-.921 2.411c-.213.556-.422 1.117-.633 1.683l-.325.871c-.393 1.054-.783 2.145-1.18 3.252l-.214.596a345.592 345.592 0 0 0-6.382 19.833l-.804 2.819a327.983 327.983 0 0 0-3.313 12.869c-.175.732-.345 1.452-.506 2.183l-.023.103c-.182.772-.354 1.546-.524 2.328a271.864 271.864 0 0 0-.968 4.543 211.888 211.888 0 0 0-1.042 5.324 96.294 96.294 0 0 0-.445 2.42c-.314 1.728-.617 3.52-.996 5.897a322.85 322.85 0 0 0-.68 4.516c-.116.805-.221 1.592-.325 2.373l-.037.283c-.11.802-.207 1.581-.305 2.36l-.028.221c-.106.817-.2 1.601-.283 2.384l-.014.116c-.113.926-.218 1.853-.312 2.787l-.15 1.487c-.082.787-.153 1.572-.225 2.356a6.67 6.67 0 0 1-.021.276 155.362 155.362 0 0 0-.257 3.063 250.558 250.558 0 0 0-.286 3.922c-.279 4.384-.393 8.606-.334 12.521a7.498 7.498 0 0 1-7.387 7.611l-.114.001a7.499 7.499 0 0 1-7.497-7.388c-.064-4.307.058-8.926.364-13.728.094-1.398.187-2.759.301-4.119.073-.992.16-2.039.257-3.079.005-.086.01-.169.018-.245.082-.91.165-1.82.259-2.721l.148-1.468c.103-1.018.217-2.033.341-3.047.095-.879.199-1.756.313-2.634l.023-.184c.104-.834.209-1.668.323-2.502l.034-.258c.111-.835.224-1.677.344-2.51.221-1.571.467-3.157.713-4.734.4-2.516.721-4.41 1.042-6.169.144-.845.312-1.757.489-2.662.34-1.859.702-3.713 1.078-5.508.321-1.577.66-3.169 1.01-4.741.18-.82.363-1.65.559-2.48a346.572 346.572 0 0 1 4.019-15.839l.827-2.898a359.437 359.437 0 0 1 6.668-20.724l.22-.613c.418-1.167.831-2.317 1.251-3.446l.319-.855c.222-.594.441-1.184.666-1.769.312-.855.637-1.689.959-2.514a344.287 344.287 0 0 1 2.772-6.965c.304-.75.617-1.503.932-2.247l.032-.077c.157-.378.314-.755.479-1.133.265-.657.539-1.298.821-1.937.156-.383.319-.756.484-1.12.285-.667.57-1.316.854-1.956.155-.364.312-.719.477-1.074a297.748 297.748 0 0 1 2.114-4.674 98.3 98.3 0 0 1 .841-1.793c.276-.595.554-1.179.83-1.753.239-.509.506-1.064.773-1.608.356-.754.756-1.573 1.155-2.36l.96-1.931a70.14 70.14 0 0 1 .801-1.578c.203-.398.426-.834.648-1.257.214-.419.428-.835.641-1.241v.001l.108-.198c2.778-5.276 4.541-8.195 4.615-8.317a7.5 7.5 0 0 1 6.409-3.615h.006a7.498 7.498 0 0 1 6.409 3.605c.075.122 1.843 3.041 4.616 8.335.038.067.074.134.108.199l1.878 3.642c.169.336.342.678.515 1.031.248.507.51 1.03.781 1.573.209.419.419.849.633 1.287l.397.813c.027.055.054.11.079.166.101.218.21.445.32.672.271.554.554 1.142.837 1.753.18.377.393.833.609 1.296l.286.612c.366.78.73 1.576 1.104 2.392l1.331 2.954a362.415 362.415 0 0 1 4.077 9.538c.457 1.117.914 2.257 1.382 3.427a360.258 360.258 0 0 1 11.473 33.455l.819 2.872a346.737 346.737 0 0 1 3.483 13.522l.036.154c.177.744.353 1.49.52 2.245.176.75.364 1.595.552 2.448.345 1.553.684 3.145 1.013 4.758.368 1.759.73 3.61 1.069 5.47.179.908.348 1.826.506 2.756.394 2.15.755 4.37 1.022 6.053.25 1.604.495 3.189.72 4.785.111.763.219 1.567.325 2.368l.053.396c.121.888.235 1.797.348 2.707.109.828.214 1.705.31 2.585.123 1.014.236 2.027.341 3.051l.15 1.496c.091.873.174 1.783.256 2.693.009.088.015.177.02.266.097 1.034.184 2.077.262 3.129.105 1.271.197 2.606.289 3.952.322 4.96.444 9.642.37 14.001a7.497 7.497 0 0 1-7.494 7.373zM152.829 307.626c-3.625 0-7.505-.128-11.509-.381-62.304-3.969-113.719-27.609-132.932-37.59a12.513 12.513 0 0 1-6.78-11.148c0-4.713 2.601-8.987 6.787-11.156 19.206-9.977 70.621-33.617 132.923-37.585 4.885-.317 9.587-.438 13.965-.364a7.5 7.5 0 0 1-.125 14.999l-.131-.001c-3.969-.068-8.262.045-12.749.335-55.341 3.524-101.747 23.348-122.721 33.77 20.984 10.428 67.386 30.246 122.714 33.77 4.426.279 8.665.392 12.614.336 4.161-.065 7.614 3.32 7.614 7.499 0 4.143-3.353 7.5-7.495 7.5-.713.011-1.439.016-2.175.016zM15.294 256.34a.01.01 0 0 0 .005.002l-.005-.002zM255.801 512.001a12.542 12.542 0 0 1-11.142-6.744c-10.036-19.142-33.813-70.371-37.8-132.397-.316-4.868-.438-9.55-.364-13.909a7.5 7.5 0 0 1 7.627-7.371 7.5 7.5 0 0 1 7.371 7.627c-.067 3.952.045 8.221.335 12.686 3.541 55.105 23.498 101.346 33.97 122.213 10.472-20.886 30.424-67.147 33.962-122.208.28-4.401.394-8.624.335-12.547a7.498 7.498 0 0 1 7.387-7.611l.114-.001a7.499 7.499 0 0 1 7.497 7.388c.064 4.315-.058 8.934-.364 13.729-3.982 61.989-27.755 113.243-37.791 132.403a12.534 12.534 0 0 1-11.137 6.742zM359.01 308.025c-.771 0-1.533-.006-2.286-.017a7.5 7.5 0 0 1 .22-14.998c3.987.057 8.287-.055 12.781-.336 55.336-3.524 101.746-23.352 122.717-33.774-20.978-10.426-67.381-30.251-122.725-33.776-4.412-.279-8.654-.393-12.614-.335l-.111.001a7.5 7.5 0 0 1-7.497-7.391 7.499 7.499 0 0 1 7.39-7.608c4.35-.062 8.986.06 13.785.363 62.308 3.969 113.719 27.61 132.931 37.591a12.517 12.517 0 0 1 6.78 11.153c0 4.716-2.601 8.992-6.787 11.161-19.206 9.977-70.621 33.617-132.923 37.585-4.044.254-7.954.381-11.661.381zm137.68-46.966.005.002a.01.01 0 0 0-.005-.002z"/><path d="m297.997 165.831-.131-.001a7.5 7.5 0 0 1-7.371-7.627c.067-3.952-.045-8.221-.335-12.686-.09-1.31-.176-2.573-.28-3.837a149.722 149.722 0 0 0-.263-3.121 5.386 5.386 0 0 1-.022-.312c-.071-.774-.142-1.549-.221-2.315l-.25-2.396c-.068-.632-.137-1.262-.214-1.891l-.013-.107a98.261 98.261 0 0 0-.28-2.349c-.112-.902-.219-1.753-.334-2.603l-.057-.425c-.099-.739-.197-1.483-.305-2.22-.22-1.56-.455-3.074-.688-4.579a247.987 247.987 0 0 0-.978-5.781 96.142 96.142 0 0 0-.48-2.615c-.319-1.75-.66-3.493-1.013-5.18a276.824 276.824 0 0 0-.971-4.56c-.177-.805-.35-1.581-.531-2.356-.171-.774-.33-1.445-.489-2.116l-.037-.156a330.066 330.066 0 0 0-3.325-12.908l-.795-2.79a345.247 345.247 0 0 0-10.988-32.04 425.558 425.558 0 0 0-1.333-3.307 341.197 341.197 0 0 0-3.888-9.094l-1.278-2.839c-.354-.774-.7-1.529-1.046-2.268l-.295-.631c-.2-.429-.398-.853-.596-1.267a82.367 82.367 0 0 0-.742-1.555 72.979 72.979 0 0 1-.417-.875l-.384-.783c-.19-.392-.376-.774-.562-1.146a283.44 283.44 0 0 1-.834-1.68l-.061-.123c-.268.533-.515 1.036-.769 1.551a90.753 90.753 0 0 0-1.062 2.171c-.275.564-.509 1.05-.742 1.545-.282.585-.537 1.124-.792 1.672-.017.035-.032.069-.05.104a272.551 272.551 0 0 0-2.79 6.111l-.065.146a20.42 20.42 0 0 0-.319.721 125.01 125.01 0 0 0-.879 2.012l-.073.166c-.104.228-.208.462-.305.703a7.645 7.645 0 0 1-.104.248 47.162 47.162 0 0 0-.702 1.654c-.03.075-.062.15-.094.225-.146.33-.282.661-.421.992l-.047.113a326.656 326.656 0 0 0-3.551 8.834 105.952 105.952 0 0 0-.921 2.411c-.213.556-.422 1.117-.633 1.683l-.325.871c-.459 1.23-.922 2.507-1.377 3.803a345.207 345.207 0 0 0-6.398 19.878l-.804 2.819a327.983 327.983 0 0 0-3.313 12.869c-.175.732-.345 1.452-.506 2.183l-.023.103c-.182.772-.354 1.546-.524 2.328a271.864 271.864 0 0 0-.968 4.543 211.888 211.888 0 0 0-1.042 5.324 95.47 95.47 0 0 0-.445 2.42c-.314 1.728-.617 3.52-.996 5.897a322.85 322.85 0 0 0-.68 4.516c-.116.805-.221 1.592-.325 2.373l-.037.283c-.11.802-.207 1.581-.305 2.36l-.028.221c-.106.817-.2 1.601-.283 2.384l-.014.116c-.077.629-.146 1.259-.214 1.891l-.249 2.384c-.082.787-.153 1.572-.225 2.356a6.67 6.67 0 0 1-.021.276 155.362 155.362 0 0 0-.257 3.063 250.558 250.558 0 0 0-.286 3.922c-.279 4.384-.393 8.606-.334 12.521a7.498 7.498 0 0 1-7.387 7.611l-.114.001a7.499 7.499 0 0 1-7.497-7.388c-.064-4.307.058-8.926.364-13.728.094-1.398.187-2.759.301-4.119.073-.992.16-2.039.257-3.079.005-.086.01-.169.018-.245.082-.91.165-1.82.259-2.721l.259-2.471c.073-.684.147-1.363.23-2.044.094-.878.199-1.756.313-2.634l.023-.184c.104-.834.209-1.668.323-2.502l.034-.258c.111-.835.224-1.677.344-2.51.221-1.571.467-3.157.713-4.734.4-2.516.721-4.41 1.042-6.169.144-.845.312-1.757.489-2.662.34-1.859.702-3.713 1.078-5.508.321-1.577.66-3.169 1.01-4.741.18-.82.363-1.65.559-2.48a346.572 346.572 0 0 1 4.019-15.839l.827-2.898a359.437 359.437 0 0 1 6.668-20.724 246.85 246.85 0 0 1 1.471-4.06l.319-.855c.222-.594.441-1.184.665-1.768.313-.855.638-1.69.96-2.515a344.287 344.287 0 0 1 2.772-6.965c.304-.75.617-1.503.932-2.247l.032-.077c.157-.378.314-.755.479-1.133.265-.657.539-1.298.821-1.937.156-.383.319-.756.484-1.12.285-.667.57-1.316.854-1.956.155-.364.312-.719.477-1.074a297.748 297.748 0 0 1 2.114-4.674 98.3 98.3 0 0 1 .841-1.793c.276-.595.554-1.179.83-1.753.239-.509.506-1.064.773-1.608.356-.754.756-1.573 1.155-2.36.313-.638.657-1.334 1-2.012.225-.458.492-.983.761-1.497.203-.398.426-.834.648-1.257.214-.419.428-.835.641-1.24.047-.089.097-.179.146-.267 2.174-3.962 6.386-6.456 10.985-6.457a12.553 12.553 0 0 1 10.977 6.436c.058.1.113.199.164.296l1.878 3.642c.169.336.342.678.515 1.031.248.507.51 1.03.781 1.573.209.419.419.849.633 1.287l.397.813c.027.055.054.11.079.166.101.218.21.445.32.672.271.554.554 1.142.837 1.753.18.377.393.833.609 1.296l.286.612c.366.78.73 1.576 1.104 2.392l1.331 2.954a362.415 362.415 0 0 1 4.077 9.538c.457 1.117.914 2.257 1.382 3.427a360.258 360.258 0 0 1 11.473 33.455l.819 2.872a346.737 346.737 0 0 1 3.483 13.522l.036.154c.177.744.353 1.49.52 2.245.176.75.364 1.595.552 2.448.345 1.553.684 3.145 1.013 4.758.368 1.759.73 3.61 1.069 5.47.179.908.348 1.826.506 2.756.394 2.15.755 4.37 1.022 6.053.25 1.604.495 3.189.72 4.785.111.763.219 1.567.325 2.368l.053.396c.121.888.235 1.797.348 2.707.109.828.214 1.706.31 2.586.083.682.157 1.363.23 2.048l.261 2.498c.091.873.174 1.783.256 2.693.009.088.015.177.02.266.097 1.034.184 2.077.262 3.129.105 1.271.197 2.606.289 3.952.322 4.96.444 9.642.37 14.001a7.498 7.498 0 0 1-7.494 7.374zM254.05 19.124a.307.307 0 0 0 .017.031l-.017-.031z"/><path d="M196.175 246.009c-8.81 0-19.632-2.996-32.283-11.984-4.516-3.189-9.217-7.144-13.957-11.739a138.25 138.25 0 0 1-3.945-3.957 179.646 179.646 0 0 1-5.536-6.004c-41.236-46.658-60.809-99.593-67.31-120.186a12.507 12.507 0 0 1 3.069-12.638A12.547 12.547 0 0 1 88.88 76.36c20.689 6.469 73.862 25.944 120.756 67.007 3.741 3.284 7.149 6.503 10.136 9.573 19.841 20.331 27.313 39.316 22.207 56.422-.05.178-.106.354-.169.526a35.982 35.982 0 0 1-2.205 5.413 7.501 7.501 0 0 1-13.379-6.783 21.016 21.016 0 0 0 1.346-3.355c.025-.083.052-.166.08-.247 3.274-11.316-3.159-25.661-18.624-41.508-2.721-2.798-5.841-5.743-9.28-8.763-41.659-36.478-88.6-55.127-110.829-62.512 7.433 22.149 26.166 68.835 62.778 110.26a166.285 166.285 0 0 0 5.092 5.523 122.961 122.961 0 0 0 3.562 3.572c4.213 4.085 8.312 7.54 12.214 10.295 12.882 9.153 24.051 11.515 33.217 7.028a7.5 7.5 0 0 1 6.592 13.474c-4.241 2.075-9.667 3.724-16.199 3.724zM87.443 87.607l.002.009a.03.03 0 0 0-.002-.009zM84.837 441.343a12.53 12.53 0 0 1-8.898-3.708 12.527 12.527 0 0 1-3.073-12.661c6.497-20.58 26.066-73.503 67.309-120.171a180.95 180.95 0 0 1 4.695-5.121 158.935 158.935 0 0 1 4.911-4.963c.078-.075.158-.149.239-.221 4.936-4.757 9.86-8.838 14.637-12.132 21.65-14.944 37.869-12.285 47.664-7.424a7.502 7.502 0 0 1-6.672 13.436c-8.988-4.465-19.914-2.334-32.473 6.335-4.175 2.879-8.533 6.508-12.955 10.787a7.668 7.668 0 0 1-.23.214 141.887 141.887 0 0 0-4.247 4.301 167.005 167.005 0 0 0-4.329 4.723c-36.628 41.445-55.358 88.135-62.78 110.258 22.232-7.395 69.199-26.064 110.84-62.519 3.323-2.911 6.403-5.817 9.152-8.635 15.602-15.951 22.068-30.38 18.707-41.731a20.224 20.224 0 0 0-1.318-3.357 7.502 7.502 0 0 1 3.326-10.072 7.503 7.503 0 0 1 10.072 3.326 35.408 35.408 0 0 1 2.305 5.85c5.067 17.115-2.455 36.115-22.362 56.467-3.015 3.09-6.381 6.267-9.999 9.436-46.861 41.024-100.055 60.526-120.75 67.006a12.681 12.681 0 0 1-3.771.576zm2.331-11.85-.001.004.001-.004zM426.881 441.617c-1.265 0-2.54-.191-3.789-.584-20.67-6.462-73.838-25.932-120.739-66.99-3.741-3.285-7.149-6.504-10.136-9.574-19.9-20.392-27.358-39.429-22.161-56.575a36.16 36.16 0 0 1 2.318-5.798 7.504 7.504 0 0 1 10.072-3.326 7.502 7.502 0 0 1 3.326 10.072 20.953 20.953 0 0 0-1.357 3.391c-3.446 11.367 2.968 25.806 18.546 41.768 2.721 2.798 5.841 5.743 9.28 8.763 41.664 36.473 88.602 55.118 110.829 62.502-7.431-22.143-26.165-68.833-62.777-110.248-2.96-3.349-5.878-6.415-8.672-9.113-16.047-15.55-30.579-21.992-42.019-18.637a21.021 21.021 0 0 0-3.363 1.311 7.502 7.502 0 0 1-6.672-13.436 36.298 36.298 0 0 1 5.794-2.263c17.197-5.04 36.262 2.447 56.691 22.244 3.066 2.963 6.259 6.315 9.479 9.958 41.237 46.648 60.811 99.584 67.313 120.179a12.517 12.517 0 0 1-3.085 12.66 12.513 12.513 0 0 1-8.878 3.696zm-2.338-11.836.001.005-.001-.005zm3.032-3.062.006.002-.006-.002zM316.29 246.332a37.39 37.39 0 0 1-10.863-1.602 37.326 37.326 0 0 1-5.774-2.28 7.502 7.502 0 0 1 6.664-13.44 22.1 22.1 0 0 0 3.441 1.358c11.423 3.447 25.958-2.937 42.022-18.471a161.786 161.786 0 0 0 8.792-9.232c36.621-41.428 55.354-88.121 62.78-110.252-22.243 7.391-69.177 26.04-110.837 62.519-3.323 2.912-6.403 5.818-9.152 8.636-15.604 15.945-22.07 30.374-18.707 41.731a21.257 21.257 0 0 0 1.327 3.386 7.502 7.502 0 0 1-13.438 6.668 36.402 36.402 0 0 1-2.271-5.788c-5.073-17.134 2.45-36.135 22.359-56.48 3.014-3.089 6.38-6.266 9.998-9.436 46.894-41.064 100.069-60.54 120.753-67.007a12.522 12.522 0 0 1 12.656 3.116 12.522 12.522 0 0 1 3.082 12.668c-6.498 20.585-26.071 73.519-67.31 120.17a177.414 177.414 0 0 1-9.607 10.087c-16.268 15.73-31.663 23.648-45.915 23.649zM427.874 90.955l-.006.002a.014.014 0 0 0 .006-.002z"/><path d="M255.995 318.31c-18.699 0-35.979-8.467-47.41-23.228-8.138-10.502-12.439-23.083-12.439-36.382 0-13.57 4.457-26.349 12.889-36.957 11.437-14.395 28.555-22.653 46.961-22.653 10.17 0 20.211 2.587 29.037 7.48a60.193 60.193 0 0 1 19.244 16.894c7.566 10.257 11.568 22.443 11.568 35.235 0 12.297-3.732 24.106-10.794 34.152a60.198 60.198 0 0 1-21.285 18.655c-8.499 4.451-18.104 6.804-27.771 6.804zm0-104.22c-13.805 0-26.641 6.191-35.218 16.985-6.302 7.928-9.632 17.48-9.632 27.625 0 9.942 3.215 19.347 9.298 27.196 8.57 11.067 21.527 17.414 35.552 17.414 7.357 0 14.362-1.715 20.821-5.096a45.137 45.137 0 0 0 15.964-13.99c5.275-7.505 8.064-16.332 8.064-25.524 0-9.564-2.989-18.672-8.645-26.338a45.095 45.095 0 0 0-14.43-12.667c-6.617-3.668-14.143-5.605-21.774-5.605z"/></svg>