<svg xmlns="http://www.w3.org/2000/svg" id="Layer_2" data-name="Layer 2" viewBox="0 0 34.98 76.65"><defs><style>.cls-1{fill:#f6981b}.cls-2{fill:#ea9b2f}.cls-4{fill:#e6790e}.cls-10{fill:#dc9939}.cls-12{fill:#dcf6c3}.cls-13{fill:#9ac841}</style></defs><g id="Layer_1-2" data-name="Layer 1"><path d="M13.14 76.59c-.45.05-.9.1-1.65-.27.34-2.47.99-4.51 1.99-6.58 2.1-1.69 3.85-3.35 5.62-4.99.02.02-.02-.02.27-.08.78-1.01 1.26-1.95 1.82-3.22.7-1.43 1.33-2.55 2.24-3.9.37-2.81.46-5.38.69-8.2.42-.74.68-1.24 1.25-1.57 2.16 2.11 4.02 4.04 6 6.18.31.44.54.65.8 1.17-.01.8-.02 1.26-.2 1.91-.32.68-.46 1.15-.65 1.96-.06.54-.09.75-.37 1.18-4.11 4.35-7.96 8.49-12.17 12.64-1.79.67-3.23 1.33-4.84 2.12-.4.34-.58.57-.74 1.04l-.06.61" style="fill:#dd7d18"/><path d="M29.32 25.79c1.27 6.75 2.54 13.49 3.42 20.81-2-.3-3.61-1.18-5.06-2.45-.74-4.88-1.65-9.35-2.74-14.09C18.11 22.75 9.77 19.82.26 19.77c.06-.58.12-1.17.87-1.85 9.16 1.22 17.64 2.46 24.44 8.46.36.32 1.63-.39 2.79-.6.53.02.74.01.95 0Z" style="fill:#7cbe0e"/><path d="M.26 20.06c9.52-.24 17.86 2.69 24.44 10.18-.35.76-.62 1.07-.89 1.38-3.96-.28-7.92-.56-12.36-1.26-3.71-3.15-6.95-5.89-10.18-8.62-.34-.46-.68-.93-1.01-1.68Z" style="fill:#88cc1d"/><path d="M28.05 25.76c-.84.23-2.11.94-2.47.62-6.81-6-15.29-7.25-24.17-8.59 3.82-.94 8.02-1.97 12.29-2.69 1.34-.23 2.82.39 4.98.79 3.34 2.07 5.93 3.96 8.52 5.85 0 0-.06.02-.07.35.3 1.44.61 2.56.92 3.67Z" style="fill:#a6dd1c"/><path d="M25.07 47.61c-.27.5-.54 1-1.28 1.79-1.58.96-2.69 1.62-4.1 2.25-8.8 1.39-12.47 4.7-11.05 9.79-6.49.36-4.24 5.83-5.64 9.51-.69.49-1.17.79-1.66 1.08-3.02-3.6-.09-6.83.9-9.96 2.67-8.4 13.17-15.45 22.43-14.99.41.25.4.55.4.55Z" style="fill:#e69f3f"/><path d="M19.14 72.8c3.86-4.14 7.71-8.28 11.93-12.37 1.2.51 2.05.97 2.89 1.42-3.44 5.64-6.81 11.36-14.42 12.59-.4-.75-.39-1.19-.39-1.64Z" class="cls-2"/><path d="M1.26 72.33c.55-.61 1.03-.91 2.12-1.4 2.99-.52 5.37-.85 8.08-1.18.77 0 1.21 0 1.65.01-.64 2.04-1.29 4.08-1.97 6.48-.51.4-.98.44-2.04.25-1.34-.44-2.09-.63-2.84-.83-1.69-1.01-3.38-2.01-5.01-3.33Z" style="fill:#db7e15"/><path d="M27.18 21.36c-2.57-1.5-5.16-3.39-8.09-5.43.41-2.94 1.16-5.73 2.43-8.84 1.48 2.02 2.45 4.36 3.41 6.7.75 2.4 1.49 4.79 2.26 7.57Z" class="cls-13"/><path d="M25.37 47.78c-.3-.17-.29-.46-.28-.61.73-.69 1.46-1.23 2.26-2.2.08-.43.17-.42.17-.42 1.61.87 3.22 1.75 5.14 2.51.69 1.89 1.08 3.89 1.14 6.3-1.06.41-1.81.41-2.56.41-1.86-1.94-3.72-3.88-5.88-5.98" class="cls-10"/><path d="M25.01 13.32c-1.06-1.88-2.02-4.22-3.35-6.62-.11-1.66-.04-3.32.48-4.83.32-.94 1.3-1.66 2.97-1.87 0 4.29 0 8.57-.1 13.32Z" class="cls-12"/><path d="M1.21 22.11c3.29 2.37 6.52 5.1 9.85 8.16-3.84-1.64-8.55-2.65-9.85-8.16Z" class="cls-13"/><path d="M34.02 61.45c-.91-.04-1.75-.5-2.7-1.22-.08-.48-.06-.7.15-1.44.34-1 .51-1.47.68-1.95 0-.46.02-.91.38-1.73 1.05-.4 1.74-.44 2.44-.48-.29 2.13-.59 4.27-.94 6.82Z" class="cls-10"/><path d="M27.68 44.15c-.16.4-.25.39-.27.44-1.1-4.05-2.18-8.14-3.44-12.6.1-.68.37-.99.89-1.49 1.16 4.3 2.07 8.77 2.82 13.65Z" class="cls-12"/><path d="M18.78 72.81c.35.44.35.89.35 1.67 0 .34-.02.29-.28.33-.78.28-1.3.53-1.82.77 0 0-.36.14-.91.12-1.02-.01-1.5-.01-1.99-.24l-.03-.67c1.44-.66 2.88-1.32 4.67-1.99Z" class="cls-1"/><path d="M28.37 25.78c-.63-1.14-.94-2.25-1.23-3.72.69.78 1.36 1.91 2.11 3.38-.13.35-.35.35-.88.34Z" class="cls-13"/><path d="M34.98 54.41c-.72.27-1.41.31-2.46.36-.61-.16-.84-.37-1.15-.81.63-.2 1.37-.19 2.49-.21.71-.01.97.14 1.12.66Z" class="cls-2"/><path d="M14.15 75.69c.48 0 .95 0 1.78.02-.46.35-1.27.67-2.44.93-.35-.06-.31-.47-.06-.69.25-.22.72-.27.72-.27Z" class="cls-10"/><path d="M6.29 76.01c.73-.16 1.49.04 2.47.41-.66.1-1.56.02-2.47-.41Z" style="fill:#d29947"/><path d="M17.36 75.66c.2-.32.72-.56 1.52-.84-.21.28-.7.59-1.52.84Z" class="cls-2"/><path d="M11.13 69.75c-2.38.33-4.76.66-7.54.99.8-3.49-1.45-8.95 5.04-9.32-1.41-5.09 2.26-8.4 11.38-9.63 1.46 2.13 2.3 4.05 3.13 5.98-.63 1.12-1.26 2.24-2.21 3.85-.84 1.36-1.34 2.23-1.85 3.1 0 0 .04.04-.31.1-2.78 1.68-5.2 3.3-7.63 4.92Z" class="cls-1"/><path d="M23.42 57.55c-1.12-1.69-1.95-3.62-3.11-5.7.78-.83 1.89-1.5 3.32-2.21.24 2.53.16 5.11-.21 7.91Z" style="fill:#f19a16"/><path d="M11.47 69.75c2.09-1.62 4.52-3.24 7.28-4.94-1.41 1.58-3.16 3.24-5.26 4.93-.8.03-1.24.02-2.01.02ZM19.37 64.67c.21-.81.72-1.68 1.49-2.73-.23.77-.71 1.72-1.49 2.73Z" class="cls-4"/><path d="M31.97 57.03c0 .28-.16.75-.47 1.43 0-.28.15-.76.47-1.43ZM14.14 75.47c.01.22-.46.27-.69.29-.09-.25.09-.48.49-.82.18-.14.19.31.2.53Z" class="cls-2"/></g></svg>