<svg xmlns="http://www.w3.org/2000/svg" id="Layer_2" data-name="Layer 2" viewBox="0 0 65.44 132.29"><defs><style>.cls-2{fill:#ea9b2f}.cls-4{fill:#92c82d}.cls-5{fill:#8acb23}.cls-6{fill:#84cc18}.cls-8{fill:#a6de16}.cls-9{fill:#add737}.cls-10{fill:#dd7d18}.cls-11{fill:#dc9939}.cls-12{fill:#db7e15}.cls-14{fill:#9ac841}.cls-16{fill:#78b622}.cls-18{fill:#74ba05}</style></defs><g id="Layer_1-2" data-name="Layer 1"><path d="M53.94 30.03c2.35-.25 4.71-.5 7.44-.4.15 1.04-.08 1.73-.53 2.68-1.44 1.44-2.67 2.63-4.26 3.87-1.63.77-3.3 1.19-4.12 2.26-5.55 7.18-10.91 14.49-16.52 21.94-.45.38-.72.59-1.15.58-.43-.65-.7-1.09-.84-1.81-.29-2.21-.71-4.15-1.13-6.08.99-3.04 1.3-6.58 3.12-9 3.23-4.29 7.37-7.89 11.71-11.66 1.48-.33 2.38-.79 3.27-1.25 0 0 0 .06.32.05 1.1-.4 1.89-.8 2.69-1.19Z" style="fill:#a6dd1c"/><path d="M20.13 52.24c.99.23 1.97.45 3.56.94 1.5.9 2.41 1.55 3.45 2.38.36.4.59.61.9 1.15.34 2.3 1.42 5.53.74 5.96-1.72 1.09-4.24 1.18-6.44 1.17-1.4 0-2.84-.81-4.18-1.44-5.77-2.72-11.51-5.51-17.28-8.63-.29-1.71-.57-3.08-.44-4.35 5.17.36 9.95.62 14.72.88.36 0 .72.01 1.55.26.79.4 1.11.56 1.43.72 0 0 .31.03.66.27.68.4 1 .55 1.33.71Z" class="cls-8"/><path d="M38.94 20.36c-.86 6.02-3.65 10.74-9.7 13.55-.78-.61-1.04-1.16-1.29-2.14 1.74-7.83 3.5-15.23 5.18-22.64.38-1.67.5-3.41.76-5.47V1.15s.06.03.35.05c1.05-.32 1.81-.66 2.57-.99.32-.19.65-.39 1.02.11.4 7.14.76 13.6 1.12 20.05Z" class="cls-5"/><path d="M5.13 66.27c-1.38-2.74-2.76-5.48-3.7-8.59 2.65.63 5.04 1.35 7.03 2.68 5.71 3.81 11.39 6.92 18.68 7.2 3.66.14 7.2 3.15 10.89 5.16 1.37 2.75 2.63 5.19 3.6 7.55-2.79-2.39-5.29-4.69-7.78-6.99 0 0 .07 0 .02-.34-.98-1.02-2.09-2.44-2.83-2.27-9.31 2.22-17.72-.34-25.92-4.41Z" class="cls-6"/><path d="M47.75 104.33c2.11 11.62-3.85 19.24-12.7 25.33-5.06 3.48-14.04 3.55-18.97-.04-.12-.38-.03-.47.42-.44 2.93.06 5.41.06 7.89.14 3.95.14 7.16-.98 8.92-5.13.39-.36.59-.59 1.15-.84 4.71-1.27 9.96-8.02 10.57-13.43.33-1.73.64-3.11 1.18-4.61.67-.4 1.11-.69 1.55-.97Z" class="cls-11"/><path d="M37.94 72.42c-3.59-1.71-7.14-4.72-10.79-4.86-7.29-.28-12.97-3.4-18.68-7.2-1.99-1.33-4.38-2.05-6.96-3.06-.49-.31-.65-.59-1.09-1.25.02-.92.25-1.43.49-1.95 5.75 2.77 11.49 5.56 17.26 8.28 1.34.63 2.78 1.43 4.18 1.44 2.2.01 4.72-.07 6.44-1.17.68-.43-.4-3.66-.73-6.21-.05-.78-.06-.95-.06-1.13 0-.02.03-.01.34.09 2.04 1.41 3.77 2.71 5.5 4.02.27.44.55.88.94 1.84 1.13 2.05 2.14 3.57 3.16 5.29 0 .19.06.56.05 1-.02 1.92-.03 3.39-.04 4.87Z" class="cls-18"/><path d="M33.9 73.66c2.45 1.93 4.94 4.23 7.79 6.94.66 1.46.96 2.51 1.31 3.91.62 1.59 1.19 2.83 1.78 4.38.04.94.05 1.56.07 2.66.01 3.88.03 7.29-.32 10.69-1.83-.67-3.3-1.34-4.77-2 3.26-6.94-.6-12.93-2.63-19.12-.8-2.45-2.12-4.72-3.24-7.45Z" class="cls-4"/><path d="M37.99 67.11s-.05-.37.14-.82c.41-1.28.63-2.1 1.05-3.22 3.04-4.82 5.87-9.35 8.9-13.58-.54 3.19-1.29 6.08-2.28 9.93 2.9-1.5 5.48-2.83 8.34-4.14l.82.09c-3.77 5.31-9.07 8.6-15.34 11.52-.86.27-1.25.25-1.63.23Z" class="cls-5"/><path d="M33.51 1.19c.37.68.38 1.4.17 2.71-.74 1.46-1.26 2.32-2 3.02-.64-.41-1.23-.97-1.47-.85-5.41 2.77-10.55 13.85-8.81 19.49.37 1.18 2.25 1.89 3.46 3.21.05 1.43.09 2.47-.04 3.72-.44.42-.72.64-1 .86-5.5-5.02-6.76-13.79-2.31-20.98 2.84-4.59 6.03-9.24 11.99-11.18Z" class="cls-9"/><path d="M23.87 33.81c.24-.68.51-.89 1.33-1.31 1.27-.23 2.01-.26 2.75-.3.26.55.52 1.1 1 1.86.48 3.94.73 7.66.56 11.86-4.86 2.96-.73 6.46-1.47 9.38 0 0-.03 0-.28.02l-.74.06c-.9-.65-1.81-1.3-3.04-2.03.1-1.59.94-3.11.89-4.6-.14-4.83-.6-9.66-.98-14.94Z" style="fill:#77af35"/><path d="M15.12 117.26c2.35-3 4.7-5.99 7.46-8.98.4 0 .5.12.37.45-.42 3.4-.71 6.46-1 9.9.35 2.13.69 3.87 1.01 5.85-.01.24-.05.71-.48.72-2.42.03-4.41.04-6.43-.34-.32-2.8-.62-5.2-.92-7.6Z" class="cls-2"/><path d="M22.92 108.23c2.33-5.48 7.26-6.36 12.89-6.88 1.04.43 1.51.73 1.99 1.25.02.22.08.66.09 1.08.02 2.13.04 3.84-.33 5.47-5.09-.3-9.79-.52-14.5-.74 0 0-.1-.11-.15-.17Z" class="cls-2"/><path d="M55.28 55.22c-.5.13-.68.11-1.01-.2.08-.8.31-1.32.83-2.04 2.61-6.64 4.93-13.09 7.15-19.56.1-.29-.77-.91-1.19-1.38.23-.69.46-1.39.72-2.35 5.34 0 3.38 4.43 2.95 6.44-1.49 6.95-3.28 14-9.46 19.09Z" class="cls-14"/><path d="M5.06 66.63c8.27 3.71 16.69 6.27 25.99 4.05.73-.17 1.85 1.25 2.82 2.3-6.66.02-13.44.17-20.02-.9-3.15-.51-5.93-3.32-8.8-5.45Z" class="cls-4"/><path d="M37.98 67.56c.39-.42.77-.4 1.45-.36 2.37 5.42 4.44 10.83 6.17 16.63-1.11.37-1.88.35-2.64.33-.3-1.05-.6-2.11-.96-3.48-1.33-2.76-2.6-5.21-3.96-7.95-.09-1.78-.07-3.25-.05-5.17ZM28.32 55.41c.44-3.02-3.69-6.52 1.1-9.06 1.16 2.12 1.96 4.29 3.08 6.59.74 2.06 1.16 3.99 1.45 6.2-1.87-1.02-3.6-2.33-5.64-3.74Z" class="cls-16"/><path d="M37.89 103.25s-.07-.44.12-.86c.43-.92.68-1.41.93-1.91 0 0 .41-.17.62-.21 1.69.62 3.16 1.28 5.17 2.24.77 1.16 1.01 2.03 1.24 2.9-.3 1.38-.61 2.76-1.23 4.38-2.49-2.02-4.67-4.29-6.84-6.55Z" class="cls-12"/><path d="M46.2 105.31c-.47-.75-.7-1.63-1.12-2.78-.2-3.7-.21-7.11.14-10.93 1.07-.37 1.79-.31 2.51-.26.06.41.13.83.02 1.84.23 2.41.62 4.21 1 6.02-.29 1.46-.58 2.92-.94 4.76-.5.67-.94.95-1.61 1.35Z" class="cls-18"/><path d="M39.31 20.13c-.74-6.22-1.09-12.67-1.44-19.58 3.84 5.85 1.66 12.7 1.44 19.58Z" style="fill:#dcf6c3"/><path d="M14.96 49.91c-4.57.11-9.34-.15-14.53-.73-.42-.32-.42-.78-.42-.78 4.92.38 9.83.76 14.96 1.51Z" class="cls-9"/><path d="M15.03 117.67c.38 2 .68 4.4.97 7.59 0 1.83.03 2.86.05 3.9 0 0-.09.08-.13.13-2.97-3.49-2.38-7.32-.89-11.61Z" class="cls-11"/><path d="M43 84.51c.71-.32 1.47-.3 2.62-.27.38 0 .32.01.44.17.28.4.47.63.68.84.04.45.08.9-.19 1.84-.81.82-1.3 1.16-1.79 1.49-.57-1.24-1.14-2.48-1.76-4.07Z" class="cls-18"/><path d="M48.82 98.8c-.46-1.41-.85-3.22-1.05-5.31.5 1.45.81 3.18 1.05 5.31ZM44.79 88.88c.47-.65.95-.98 1.69-1.47.62.96 1 2.08 1.31 3.55-.78.31-1.5.26-2.57.16-.37-.68-.39-1.3-.43-2.24Z" class="cls-16"/><path d="M38.62 100.42c.07.57-.18 1.06-.62 1.76-.67-.1-1.14-.39-1.77-.93.58-.46 1.33-.68 2.4-.83Z" class="cls-10"/><path d="M50.57 31.19c-.54.44-1.43.9-2.57 1.21.58-.5 1.39-.84 2.57-1.21Z" class="cls-14"/><path d="M36.47.23c-.43.31-1.18.65-2.27.98.43-.32 1.18-.64 2.27-.98Z" class="cls-9"/><path d="M53.59 30.1c-.44.32-1.23.72-2.37 1.11.44-.35 1.23-.69 2.37-1.11Z" class="cls-14"/><path d="M20 51.95c-.2.13-.53-.03-1.06-.36.17-.1.55-.01 1.06.36ZM18.02 50.97c-.2.12-.51-.04-1.04-.38.17-.09.54 0 1.04.38Z" class="cls-9"/><path d="M46.75 84.99c-.22.05-.41-.18-.69-.61.16 0 .43.18.69.61Z" class="cls-16"/><path d="M60.85 32.3c.63.21 1.5.83 1.4 1.12-2.22 6.48-4.55 12.92-7.42 19.39-2.04-1.88-3.52-3.79-4.96-6.04 2.38-3.79 4.73-7.22 7.07-10.65 1.23-1.19 2.46-2.38 3.9-3.82Z" style="fill:#88cc1d"/><path d="M56.59 36.17c-1.98 3.38-4.33 6.82-6.98 10.73-.78 1.08-1.26 1.68-1.73 2.29-2.83 4.53-5.66 9.07-8.92 13.67-1.23-.84-2.03-1.75-2.83-2.66 5.43-7.27 10.79-14.58 16.34-21.76.83-1.07 2.49-1.49 4.12-2.26Z" class="cls-18"/><path d="M35.95 60.37c.98.73 1.79 1.63 2.81 2.76 0 1.05-.22 1.87-.64 2.96-1.21-1.26-2.22-2.78-3.2-4.63.31-.52.58-.72 1.03-1.1ZM27.14 55.55c-.15-.18.35-.22.6-.22.25.17.25.34.25.76-.26.07-.49-.14-.84-.54Z" class="cls-16"/><path d="M27.95 31.78c-.75.46-1.48.5-2.59.52-.4-1.05-.44-2.1-.39-3.92 2.37-7.62 4.65-14.46 6.93-21.29.52-.87 1.04-1.73 1.77-2.83-.04 1.48-.16 3.21-.54 4.88-1.68 7.41-3.44 14.81-5.18 22.64Z" class="cls-18"/><path d="M37.9 103.68c2.17 1.84 4.35 4.1 6.81 6.48-.28 5.17-5.53 11.92-10.52 12.99-1.2-1.11-1.76-2.04-2.3-2.95.01.01.02 0 .33-.1.79-1.03 1.27-1.95 1.93-3.13.4-1.07.61-1.88 1.1-2.89 1.09-1.75 1.9-3.3 2.72-4.86-.02-1.7-.04-3.41-.06-5.54ZM16.51 129.18c-.47-1.06-.49-2.1-.48-3.52 2.03-.4 4.02-.42 6.7-.27 3.93-.24 7.17-.64 10.42-1.05-1.59 4-4.79 5.11-8.75 4.98-2.48-.08-4.95-.08-7.89-.14Z" class="cls-10"/><path d="M33.31 124.19c-3.41.55-6.65.96-10.16 1.19-.26-.18-.22-.65.1-1.04 3.08-1.64 5.85-2.89 8.61-4.15.56.93 1.11 1.85 1.94 2.97.09.44-.11.67-.5 1.03Z" class="cls-12"/><path d="M48.08 49.49c.27-.9.75-1.51 1.49-2.24 1.74 1.78 3.22 3.68 4.96 5.76.04.69-.19 1.21-.54 1.99-2.71 1.59-5.3 2.92-8.19 4.42.99-3.85 1.74-6.74 2.28-9.93Z" class="cls-6"/><path d="M31.68 6.92c-2.06 7.01-4.35 13.85-6.73 21.07-1.29-.54-3.17-1.25-3.54-2.43-1.75-5.64 3.4-16.72 8.81-19.49.24-.12.82.44 1.47.85Z" class="cls-8"/><path d="M37.57 109.15c-.43 1.63-1.25 3.19-2.71 4.92-4.41-.92-8.25-2.42-9.82 3.3-.15.54-2.02.6-3.1.89.3-3.06.59-6.12 1.01-9.52 4.83-.11 9.53.11 14.62.41Z" style="fill:#f19a16"/><path d="M21.94 118.64c1.07-.67 2.94-.73 3.09-1.27 1.57-5.72 5.41-4.21 9.55-3.1.16.82-.05 1.64-.71 2.88-.95 1.31-1.46 2.19-1.97 3.06h-.02c-2.78 1.24-5.54 2.49-8.61 3.89-.65-1.59-.99-3.33-1.33-5.46Z" style="fill:#f6981b"/><path d="M32.21 120.1c.2-.76.71-1.64 1.48-2.69-.22.74-.7 1.66-1.48 2.69Z" class="cls-12"/></g></svg>