<?xml version="1.0" encoding="UTF-8"?>
<svg id="Layer_2" data-name="Layer 2" xmlns="http://www.w3.org/2000/svg" viewBox="0 0 34.41 30.72">
  <defs>
    <style>
      .cls-1 {
        fill: #f6981b;
      }

      .cls-2 {
        fill: #ea901b;
      }

      .cls-3 {
        fill: #e49f34;
      }

      .cls-4 {
        fill: #f19a16;
      }

      .cls-5 {
        fill: #e6790e;
      }

      .cls-6 {
        fill: #d29947;
      }

      .cls-7 {
        fill: #dd8928;
      }

      .cls-8 {
        fill: #d77f22;
      }
    </style>
  </defs>
  <g id="Layer_1-2" data-name="Layer 1">
    <path class="cls-7" d="m22.5,26.42s-.35.14-.93.15c-2.71,1.07-4.85,2.13-6.98,3.19-8.37,2.52-13.7.26-14.59-8.75.81-.39,1.23-.39,1.68-.05,2.73,4.34,4.82,1.68,7.37-.3,2.4-.39,4.41-.76,6.53-.78,1.63,4.79,4.66,4.04,8.14,2.64.44.04.61.05.64.33-.72,1.37-1.29,2.46-1.86,3.56Z"/>
    <path class="cls-3" d="m1.65,20.62c-.42,0-.84,0-1.57,0C2.42,8.42,12.24-.49,23.29.02c.3,1.14.3,1.81-.12,2.48-4.99.04-9.47.24-11.97,5.07,2.35,1.08,4.27,1.96,6.19,2.85-.18.55-.35,1.1-.53,1.65-1.2,0-2.58.38-3.58-.06-4.78-2.11-6.34.24-7.07,4.55-1.75,1.38-3.16,2.72-4.57,4.06Z"/>
    <path class="cls-8" d="m23.6,2.49c0-.66-.01-1.33,0-2.32,2.06-.17,4.1-.01,6.51.75.73,2.28,1.09,3.96,1.12,5.75-5.09,2.6-7.89,6.31-7.65,11.91,0,0,.01-.01-.38-.02-2.11-.33-3.84-.66-5.52-1.33,1.03-1.15,2.02-1.95,3.15-2.87.33-.29.5-.47.74-1.03.74-3.85,1.37-7.34,2.01-10.83Z"/>
    <path class="cls-6" d="m31.56,6.55c-.35-1.68-.7-3.36-1.13-5.4,3.98,2.29,4.53,6.37,3.55,10.46-1.52,6.29-5.92,10.77-11.13,14.79.22-1.08.79-2.18,1.71-3.82,2.29-3.69,4.22-6.84,6.2-10.37.3-2.14.55-3.9.8-5.66Z"/>
    <path class="cls-6" d="m14.97,29.68c1.75-.98,3.88-2.04,6.41-3.1-1.75,1.01-3.89,2.01-6.41,3.1Z"/>
    <path class="cls-1" d="m21.02,13.78c-.89.91-1.78,1.82-2.91,3.25-.73,1.14-1.21,1.75-1.7,2.36-1.95.61-3.91,1.21-6.37,1.56-1.29-1.35-2.06-2.43-2.84-3.52-.1-4.28,1.18-6.8,6.16-5.25,1.05.33,2.37-.21,3.57-.35.11-.57.22-1.13.33-1.7-2.01-.65-4.02-1.31-6.48-2.11,1.93-5.09,6.35-5.81,11.3-6.42.19,3.48-.04,7.02-.45,11.06-.36.69-.5.9-.62,1.12Z"/>
    <path class="cls-5" d="m15.58,19.89c.45-.91,1-1.46,1.81-2.16,1.98.18,3.71.5,5.82,1.23.34,1.45.29,2.5.25,3.55-3.22,1.42-6.25,2.18-7.88-2.61Z"/>
    <path class="cls-4" d="m6.22,16.56c.98,1.13,1.63,2.3,2.36,3.79-2.07,2.29-4.17,4.95-6.9.61,1.38-1.68,2.79-3.02,4.54-4.4Z"/>
    <path class="cls-2" d="m23.73,22.53c-.22-1.07-.18-2.12-.13-3.57,0-.4,0-.39.33-.46,2.48-2.02,4.63-3.96,6.78-5.9-1.93,3.15-3.86,6.3-5.99,9.72-.38.26-.56.25-.99.21Z"/>
    <path class="cls-5" d="m30.76,12.22c-2.2,2.32-4.35,4.26-6.84,6.28-.57-5.52,2.23-9.23,7.32-11.83.07,1.65-.18,3.41-.48,5.55Z"/>
    <path class="cls-3" d="m20.85,14.36c0-.09.16-.27.5-.56,0,.08-.17.27-.5.56Z"/>
  </g>
</svg>