<svg xmlns="http://www.w3.org/2000/svg" xml:space="preserve" fill="#A9C1F1" viewBox="0 0 1000 1000"><path d="M236.53 106.9c-6.93 1.03-23.34 18.98-117.24 126.99C59.26 302.9 10.26 360.37 10 361.4c0 1.28 50.03 2.05 111.34 2.05h111.6l108.52-126.48C401.23 167.7 451 109.47 451.77 108.18c1.54-2.56-199.08-3.84-215.24-1.28zM549.77 107.42c-.77 1.03 47.97 59 108 129.04l109.54 126.99h111.34c61.32 0 111.34-.77 111.34-2.05-.26-1.03-49.77-58.75-110.31-128.53L769.63 106.13l-109.54-.26c-60.04-.25-109.81.52-110.32 1.55zM394.82 238.51c-57.21 66.45-104.16 121.86-104.67 122.89-.51 1.03 93.89 2.05 209.6 2.05 115.96 0 210.62-.51 210.62-1.28 0-1.28-29.76-36.17-167.78-196.26-22.32-26.17-41.56-47.72-42.33-47.97-.77-.26-48.23 53.87-105.44 120.57zM28.21 421.68c9.24 9.75 102.37 107.75 207.29 218.07 104.67 110.57 190.87 200.87 191.64 200.87 1.54 0-.26-3.85-100.05-223.19l-96.2-211.65-109.55-.77-109.54-.51 16.41 17.18zM277.32 406.8c4.1 11.55 221.65 487.7 222.68 487.7 1.28 0 216.52-471.27 222.42-486.67 1.02-2.82-37.97-3.33-222.42-3.33-135.2 0-223.19 1.02-222.68 2.3zM765.78 412.71c-1.79 4.62-43.61 96.72-92.61 204.72-105.19 231.15-101.59 223.19-100.31 223.19.51 0 86.71-90.3 191.64-200.62 104.92-110.57 198.05-208.57 207.29-218.32l16.41-17.18H769.37l-3.59 8.21z"/></svg>